<?xml version="1.0" encoding="us-ascii" standalone="no"?><svg xmlns="http://www.w3.org/2000/svg" xmlns:xlink="http://www.w3.org/1999/xlink" contentStyleType="text/css" height="1044px" preserveAspectRatio="none" style="width:1697px;height:1044px;background:#FFFFFF;" version="1.1" viewBox="0 0 1697 1044" width="1697px" zoomAndPan="magnify"><defs/><g><!--cluster core--><g id="cluster_core"><path d="M8.5,191.872 L39.5,191.872 A3.75,3.75 0 0 1 42,194.372 L49,216.9399 L790.5,216.9399 A2.5,2.5 0 0 1 793,219.4399 L793,1034.662 A2.5,2.5 0 0 1 790.5,1037.162 L8.5,1037.162 A2.5,2.5 0 0 1 6,1034.662 L6,194.372 A2.5,2.5 0 0 1 8.5,191.872 " fill="none" style="stroke:#000000;stroke-width:1.5;"/><line style="stroke:#000000;stroke-width:1.5;" x1="6" x2="49" y1="216.9399" y2="216.9399"/><text fill="#000000" font-family="sans-serif" font-size="14" font-weight="bold" lengthAdjust="spacing" textLength="30" x="10" y="208.8379">core</text></g><!--cluster dicechancis--><g id="cluster_dicechancis"><path d="M1114.5,6.602 L1194.5,6.602 A3.75,3.75 0 0 1 1197,9.102 L1204,31.6699 L1687.5,31.6699 A2.5,2.5 0 0 1 1690,34.1699 L1690,774.182 A2.5,2.5 0 0 1 1687.5,776.682 L1114.5,776.682 A2.5,2.5 0 0 1 1112,774.182 L1112,9.102 A2.5,2.5 0 0 1 1114.5,6.602 " fill="none" style="stroke:#000000;stroke-width:1.5;"/><line style="stroke:#000000;stroke-width:1.5;" x1="1112" x2="1204" y1="31.6699" y2="31.6699"/><text fill="#000000" font-family="sans-serif" font-size="14" font-weight="bold" lengthAdjust="spacing" textLength="79" x="1116" y="23.5679">dicechancis</text></g><!--cluster Primitives--><g id="cluster_Primitives"><path d="M940.5,415.282 L1011.5,415.282 A3.75,3.75 0 0 1 1014,417.782 L1021,440.3499 L1085.5,440.3499 A2.5,2.5 0 0 1 1088,442.8499 L1088,514.782 A2.5,2.5 0 0 1 1085.5,517.282 L940.5,517.282 A2.5,2.5 0 0 1 938,514.782 L938,417.782 A2.5,2.5 0 0 1 940.5,415.282 " fill="none" style="stroke:#000000;stroke-width:1.5;"/><line style="stroke:#000000;stroke-width:1.5;" x1="938" x2="1021" y1="440.3499" y2="440.3499"/><text fill="#000000" font-family="sans-serif" font-size="14" font-weight="bold" lengthAdjust="spacing" textLength="70" x="942" y="432.2479">Primitives</text></g><!--class DefaultCollection--><g id="elem_DefaultCollection"><rect codeLine="3" fill="#F1F1F1" height="48" id="DefaultCollection" rx="2.5" ry="2.5" style="stroke:#181818;stroke-width:0.5;" width="147" x="524.5" y="229.872"/><ellipse cx="539.5" cy="245.872" fill="#ADD1B2" rx="11" ry="11" style="stroke:#181818;stroke-width:1.0;"/><path d="M538.9688,252.7939 Q537.2188,252.7939 536.0781,252.0595 Q534.9531,251.3095 534.3906,249.9657 Q533.8438,248.6064 533.8438,246.8095 Q533.8438,244.7782 534.5,243.3251 Q535.1563,241.872 536.4375,241.0907 Q537.7188,240.3095 539.5938,240.3095 Q540.4844,240.3095 541.1563,240.497 Q541.8281,240.6689 542.5156,241.0126 L541.7031,243.0282 Q541.0781,242.7157 540.5313,242.5907 Q540,242.4657 539.5156,242.4657 Q538.3438,242.4657 537.6406,242.997 Q536.9375,243.5282 536.6406,244.4814 Q536.3438,245.4345 536.3438,246.7001 Q536.3438,248.7157 537.0625,249.6845 Q537.7813,250.6376 539.375,250.6376 Q539.9688,250.6376 540.5938,250.4814 Q541.2188,250.3251 542.0469,249.9501 L542.0469,252.1689 Q541.3125,252.4814 540.5156,252.6376 Q539.7344,252.7939 538.9688,252.7939 Z " fill="#000000"/><text fill="#000000" font-family="sans-serif" font-size="14" lengthAdjust="spacing" textLength="115" x="553.5" y="251.304">DefaultCollection</text><line style="stroke:#181818;stroke-width:0.5;" x1="525.5" x2="670.5" y1="261.872" y2="261.872"/><line style="stroke:#181818;stroke-width:0.5;" x1="525.5" x2="670.5" y1="269.872" y2="269.872"/></g><!--class collection--><g id="elem_collection"><rect codeLine="5" fill="#F1F1F1" height="124.2717" id="collection" rx="2.5" ry="2.5" style="stroke:#181818;stroke-width:0.5;" width="368" x="409" y="415.142"/><ellipse cx="557.75" cy="431.142" fill="#B4A7E5" rx="11" ry="11" style="stroke:#181818;stroke-width:1.0;"/><path d="M553.7813,437.642 L553.7813,435.9389 L556.1406,435.6732 L556.1406,427.4701 L553.7813,427.2045 L553.7813,425.5014 L560.9219,425.5014 L560.9219,427.2045 L558.5,427.4701 L558.5,435.6732 L560.9219,435.9389 L560.9219,437.642 L553.7813,437.642 Z " fill="#000000"/><text fill="#000000" font-family="sans-serif" font-size="14" font-style="italic" lengthAdjust="spacing" textLength="62" x="578.25" y="436.574">Collection</text><line style="stroke:#181818;stroke-width:0.5;" x1="410" x2="776" y1="447.142" y2="447.142"/><text fill="#000000" font-family="sans-serif" font-size="14" lengthAdjust="spacing" textLength="356" x="415" y="466.1079">container of bags, used for combinatorial calulations</text><text fill="#000000" font-family="sans-serif" font-size="14" lengthAdjust="spacing" textLength="235" x="415" y="485.1758">related to Group-Group interaction</text><text fill="#000000" font-family="sans-serif" font-size="14" lengthAdjust="spacing" textLength="188" x="415" y="504.2438">bags are created seperately</text><line style="stroke:#181818;stroke-width:0.5;" x1="410" x2="776" y1="512.3457" y2="512.3457"/><ellipse cx="420" cy="527.3797" fill="#84BE84" rx="3" ry="3" style="stroke:#038048;stroke-width:1.0;"/><text fill="#000000" font-family="sans-serif" font-size="14" lengthAdjust="spacing" textLength="242" x="429" y="531.3117">prepare() -&gt; Iterable[(Group, count)]</text></g><!--class DefaultGroup--><g id="elem_DefaultGroup"><rect codeLine="10" fill="#F1F1F1" height="48" id="DefaultGroup" rx="2.5" ry="2.5" style="stroke:#181818;stroke-width:0.5;" width="123" x="251.5" y="453.282"/><ellipse cx="266.5" cy="469.282" fill="#ADD1B2" rx="11" ry="11" style="stroke:#181818;stroke-width:1.0;"/><path d="M265.9688,476.2039 Q264.2188,476.2039 263.0781,475.4695 Q261.9531,474.7195 261.3906,473.3757 Q260.8438,472.0164 260.8438,470.2195 Q260.8438,468.1882 261.5,466.7351 Q262.1563,465.282 263.4375,464.5007 Q264.7188,463.7195 266.5938,463.7195 Q267.4844,463.7195 268.1563,463.907 Q268.8281,464.0789 269.5156,464.4226 L268.7031,466.4382 Q268.0781,466.1257 267.5313,466.0007 Q267,465.8757 266.5156,465.8757 Q265.3438,465.8757 264.6406,466.407 Q263.9375,466.9382 263.6406,467.8914 Q263.3438,468.8445 263.3438,470.1101 Q263.3438,472.1257 264.0625,473.0945 Q264.7813,474.0476 266.375,474.0476 Q266.9688,474.0476 267.5938,473.8914 Q268.2188,473.7351 269.0469,473.3601 L269.0469,475.5789 Q268.3125,475.8914 267.5156,476.0476 Q266.7344,476.2039 265.9688,476.2039 Z " fill="#000000"/><text fill="#000000" font-family="sans-serif" font-size="14" lengthAdjust="spacing" textLength="91" x="280.5" y="474.714">DefaultGroup</text><line style="stroke:#181818;stroke-width:0.5;" x1="252.5" x2="373.5" y1="485.282" y2="485.282"/><line style="stroke:#181818;stroke-width:0.5;" x1="252.5" x2="373.5" y1="493.282" y2="493.282"/></g><!--class group--><g id="elem_group"><rect codeLine="12" fill="#F1F1F1" height="162.4075" id="group" rx="2.5" ry="2.5" style="stroke:#181818;stroke-width:0.5;" width="278" x="384" y="636.412"/><ellipse cx="499.25" cy="652.412" fill="#B4A7E5" rx="11" ry="11" style="stroke:#181818;stroke-width:1.0;"/><path d="M495.2813,658.912 L495.2813,657.2089 L497.6406,656.9432 L497.6406,648.7401 L495.2813,648.4745 L495.2813,646.7714 L502.4219,646.7714 L502.4219,648.4745 L500,648.7401 L500,656.9432 L502.4219,657.2089 L502.4219,658.912 L495.2813,658.912 Z " fill="#000000"/><text fill="#000000" font-family="sans-serif" font-size="14" font-style="italic" lengthAdjust="spacing" textLength="39" x="519.75" y="657.844">Group</text><line style="stroke:#181818;stroke-width:0.5;" x1="385" x2="661" y1="668.412" y2="668.412"/><text fill="#000000" font-family="sans-serif" font-size="14" lengthAdjust="spacing" textLength="217" x="390" y="687.3779">container of mappings, used for</text><text fill="#000000" font-family="sans-serif" font-size="14" lengthAdjust="spacing" textLength="225" x="390" y="706.4458">specific combinatorial calulations</text><text fill="#000000" font-family="sans-serif" font-size="14" lengthAdjust="spacing" textLength="215" x="390" y="725.5138">mappings are created seperatly</text><line style="stroke:#181818;stroke-width:0.5;" x1="385" x2="661" y1="733.6157" y2="733.6157"/><ellipse cx="395" cy="748.6497" fill="#84BE84" rx="3" ry="3" style="stroke:#038048;stroke-width:1.0;"/><text fill="#000000" font-family="sans-serif" font-size="14" lengthAdjust="spacing" textLength="252" x="404" y="752.5817">prepare() -&gt; Iterable[(Mapping, bool)]</text><ellipse cx="395" cy="767.7176" fill="#84BE84" rx="3" ry="3" style="stroke:#038048;stroke-width:1.0;"/><text fill="#000000" font-family="sans-serif" font-size="14" lengthAdjust="spacing" textLength="145" x="404" y="771.6496">prepareSlice() -&gt; Slice</text><ellipse cx="395" cy="786.7855" fill="#84BE84" rx="3" ry="3" style="stroke:#038048;stroke-width:1.0;"/><text fill="#000000" font-family="sans-serif" font-size="14" lengthAdjust="spacing" textLength="168" x="404" y="790.7175">__getitem__(Python.slice):</text></g><!--class mapping--><g id="elem_mapping"><rect codeLine="19" fill="#F1F1F1" height="143.3396" id="mapping" rx="2.5" ry="2.5" style="stroke:#181818;stroke-width:0.5;" width="349" x="428.5" y="877.822"/><ellipse cx="527.25" cy="893.822" fill="#B4A7E5" rx="11" ry="11" style="stroke:#181818;stroke-width:1.0;"/><path d="M523.2813,900.322 L523.2813,898.6189 L525.6406,898.3532 L525.6406,890.1501 L523.2813,889.8845 L523.2813,888.1814 L530.4219,888.1814 L530.4219,889.8845 L528,890.1501 L528,898.3532 L530.4219,898.6189 L530.4219,900.322 L523.2813,900.322 Z " fill="#000000"/><text fill="#000000" font-family="sans-serif" font-size="14" font-style="italic" lengthAdjust="spacing" textLength="143" x="547.75" y="899.254">CombinationsMapping</text><line style="stroke:#181818;stroke-width:0.5;" x1="429.5" x2="776.5" y1="909.822" y2="909.822"/><text fill="#000000" font-family="sans-serif" font-size="14" lengthAdjust="spacing" textLength="337" x="434.5" y="928.7879">Basic backend type for combinatorial calculations,</text><text fill="#000000" font-family="sans-serif" font-size="14" lengthAdjust="spacing" textLength="328" x="434.5" y="947.8558">if the methods are defined then its good for use.</text><line style="stroke:#181818;stroke-width:0.5;" x1="429.5" x2="776.5" y1="955.9578" y2="955.9578"/><ellipse cx="439.5" cy="970.9918" fill="#84BE84" rx="3" ry="3" style="stroke:#038048;stroke-width:1.0;"/><text fill="#000000" font-family="sans-serif" font-size="14" lengthAdjust="spacing" textLength="45" x="448.5" y="974.9238">items()</text><ellipse cx="439.5" cy="990.0597" fill="#84BE84" rx="3" ry="3" style="stroke:#038048;stroke-width:1.0;"/><text fill="#000000" font-family="sans-serif" font-size="14" lengthAdjust="spacing" textLength="37" x="448.5" y="993.9917">keys()</text><ellipse cx="439.5" cy="1009.1276" fill="#84BE84" rx="3" ry="3" style="stroke:#038048;stroke-width:1.0;"/><text fill="#000000" font-family="sans-serif" font-size="14" lengthAdjust="spacing" textLength="51" x="448.5" y="1013.0596">values()</text></g><!--class sliceClass--><g id="elem_sliceClass"><rect codeLine="25" fill="#F1F1F1" height="48" id="sliceClass" rx="2.5" ry="2.5" style="stroke:#181818;stroke-width:0.5;" width="63" x="260.5" y="693.622"/><ellipse cx="275.5" cy="709.622" fill="#ADD1B2" rx="11" ry="11" style="stroke:#181818;stroke-width:1.0;"/><path d="M274.9688,716.5439 Q273.2188,716.5439 272.0781,715.8095 Q270.9531,715.0595 270.3906,713.7157 Q269.8438,712.3564 269.8438,710.5595 Q269.8438,708.5282 270.5,707.0751 Q271.1563,705.622 272.4375,704.8407 Q273.7188,704.0595 275.5938,704.0595 Q276.4844,704.0595 277.1563,704.247 Q277.8281,704.4189 278.5156,704.7626 L277.7031,706.7782 Q277.0781,706.4657 276.5313,706.3407 Q276,706.2157 275.5156,706.2157 Q274.3438,706.2157 273.6406,706.747 Q272.9375,707.2782 272.6406,708.2314 Q272.3438,709.1845 272.3438,710.4501 Q272.3438,712.4657 273.0625,713.4345 Q273.7813,714.3876 275.375,714.3876 Q275.9688,714.3876 276.5938,714.2314 Q277.2188,714.0751 278.0469,713.7001 L278.0469,715.9189 Q277.3125,716.2314 276.5156,716.3876 Q275.7344,716.5439 274.9688,716.5439 Z " fill="#000000"/><text fill="#000000" font-family="sans-serif" font-size="14" lengthAdjust="spacing" textLength="31" x="289.5" y="715.054">Slice</text><line style="stroke:#181818;stroke-width:0.5;" x1="261.5" x2="322.5" y1="725.622" y2="725.622"/><line style="stroke:#181818;stroke-width:0.5;" x1="261.5" x2="322.5" y1="733.622" y2="733.622"/></g><!--class slice--><g id="elem_slice"><rect codeLine="26" fill="#F1F1F1" height="124.2717" id="slice" rx="2.5" ry="2.5" style="stroke:#181818;stroke-width:0.5;" width="202" x="191" y="887.352"/><ellipse cx="273.75" cy="903.352" fill="#B4A7E5" rx="11" ry="11" style="stroke:#181818;stroke-width:1.0;"/><path d="M269.7813,909.852 L269.7813,908.1489 L272.1406,907.8832 L272.1406,899.6801 L269.7813,899.4145 L269.7813,897.7114 L276.9219,897.7114 L276.9219,899.4145 L274.5,899.6801 L274.5,907.8832 L276.9219,908.1489 L276.9219,909.852 L269.7813,909.852 Z " fill="#000000"/><text fill="#000000" font-family="sans-serif" font-size="14" font-style="italic" lengthAdjust="spacing" textLength="28" x="294.25" y="908.784">Slice</text><line style="stroke:#181818;stroke-width:0.5;" x1="192" x2="392" y1="919.352" y2="919.352"/><line style="stroke:#181818;stroke-width:0.5;" x1="192" x2="392" y1="927.352" y2="927.352"/><ellipse cx="202" cy="942.3859" fill="#84BE84" rx="3" ry="3" style="stroke:#038048;stroke-width:1.0;"/><text fill="#000000" font-family="sans-serif" font-size="14" lengthAdjust="spacing" textLength="176" x="211" y="946.3179">Slice(mask: Sequence[int])</text><ellipse cx="202" cy="961.4539" fill="#84BE84" rx="3" ry="3" style="stroke:#038048;stroke-width:1.0;"/><text fill="#000000" font-family="sans-serif" font-size="14" lengthAdjust="spacing" textLength="163" x="211" y="965.3858">Slice(mask: python slice)</text><ellipse cx="202" cy="980.5218" fill="#84BE84" rx="3" ry="3" style="stroke:#038048;stroke-width:1.0;"/><text fill="#000000" font-family="sans-serif" font-size="14" lengthAdjust="spacing" textLength="37" x="211" y="984.4538">next()</text><ellipse cx="202" cy="999.5897" fill="#84BE84" rx="3" ry="3" style="stroke:#038048;stroke-width:1.0;"/><text fill="#000000" font-family="sans-serif" font-size="14" lengthAdjust="spacing" textLength="38" x="211" y="1003.5217">prev()</text></g><!--class GroupCombinations--><g id="elem_GroupCombinations"><rect codeLine="32" fill="#F1F1F1" height="67.0679" id="GroupCombinations" rx="2.5" ry="2.5" style="stroke:#181818;stroke-width:0.5;" width="195" x="21.5" y="443.742"/><ellipse cx="53.15" cy="459.742" fill="#B4A7E5" rx="11" ry="11" style="stroke:#181818;stroke-width:1.0;"/><path d="M49.1813,466.242 L49.1813,464.5389 L51.5406,464.2732 L51.5406,456.0701 L49.1813,455.8045 L49.1813,454.1014 L56.3219,454.1014 L56.3219,455.8045 L53.9,456.0701 L53.9,464.2732 L56.3219,464.5389 L56.3219,466.242 L49.1813,466.242 Z " fill="#000000"/><text fill="#000000" font-family="sans-serif" font-size="14" font-style="italic" lengthAdjust="spacing" textLength="126" x="70.85" y="465.174">GroupCombinations</text><line style="stroke:#181818;stroke-width:0.5;" x1="22.5" x2="215.5" y1="475.742" y2="475.742"/><line style="stroke:#181818;stroke-width:0.5;" x1="22.5" x2="215.5" y1="483.742" y2="483.742"/><text fill="#000000" font-family="sans-serif" font-size="14" lengthAdjust="spacing" textLength="183" x="27.5" y="502.7079">calculate(Group, operation)</text></g><!--class RegularCombinations--><g id="elem_RegularCombinations"><rect codeLine="35" fill="#F1F1F1" height="48" id="RegularCombinations" rx="2.5" ry="2.5" style="stroke:#181818;stroke-width:0.5;" width="178" x="24" y="229.872"/><ellipse cx="39" cy="245.872" fill="#ADD1B2" rx="11" ry="11" style="stroke:#181818;stroke-width:1.0;"/><path d="M38.4688,252.7939 Q36.7188,252.7939 35.5781,252.0595 Q34.4531,251.3095 33.8906,249.9657 Q33.3438,248.6064 33.3438,246.8095 Q33.3438,244.7782 34,243.3251 Q34.6563,241.872 35.9375,241.0907 Q37.2188,240.3095 39.0938,240.3095 Q39.9844,240.3095 40.6563,240.497 Q41.3281,240.6689 42.0156,241.0126 L41.2031,243.0282 Q40.5781,242.7157 40.0313,242.5907 Q39.5,242.4657 39.0156,242.4657 Q37.8438,242.4657 37.1406,242.997 Q36.4375,243.5282 36.1406,244.4814 Q35.8438,245.4345 35.8438,246.7001 Q35.8438,248.7157 36.5625,249.6845 Q37.2813,250.6376 38.875,250.6376 Q39.4688,250.6376 40.0938,250.4814 Q40.7188,250.3251 41.5469,249.9501 L41.5469,252.1689 Q40.8125,252.4814 40.0156,252.6376 Q39.2344,252.7939 38.4688,252.7939 Z " fill="#000000"/><text fill="#000000" font-family="sans-serif" font-size="14" lengthAdjust="spacing" textLength="146" x="53" y="251.304">RegularCombinations</text><line style="stroke:#181818;stroke-width:0.5;" x1="25" x2="201" y1="261.872" y2="261.872"/><line style="stroke:#181818;stroke-width:0.5;" x1="25" x2="201" y1="269.872" y2="269.872"/></g><!--class SelectiveCombinations--><g id="elem_SelectiveCombinations"><rect codeLine="38" fill="#F1F1F1" height="48" id="SelectiveCombinations" rx="2.5" ry="2.5" style="stroke:#181818;stroke-width:0.5;" width="184" x="237" y="229.872"/><ellipse cx="252" cy="245.872" fill="#ADD1B2" rx="11" ry="11" style="stroke:#181818;stroke-width:1.0;"/><path d="M251.4688,252.7939 Q249.7188,252.7939 248.5781,252.0595 Q247.4531,251.3095 246.8906,249.9657 Q246.3438,248.6064 246.3438,246.8095 Q246.3438,244.7782 247,243.3251 Q247.6563,241.872 248.9375,241.0907 Q250.2188,240.3095 252.0938,240.3095 Q252.9844,240.3095 253.6563,240.497 Q254.3281,240.6689 255.0156,241.0126 L254.2031,243.0282 Q253.5781,242.7157 253.0313,242.5907 Q252.5,242.4657 252.0156,242.4657 Q250.8438,242.4657 250.1406,242.997 Q249.4375,243.5282 249.1406,244.4814 Q248.8438,245.4345 248.8438,246.7001 Q248.8438,248.7157 249.5625,249.6845 Q250.2813,250.6376 251.875,250.6376 Q252.4688,250.6376 253.0938,250.4814 Q253.7188,250.3251 254.5469,249.9501 L254.5469,252.1689 Q253.8125,252.4814 253.0156,252.6376 Q252.2344,252.7939 251.4688,252.7939 Z " fill="#000000"/><text fill="#000000" font-family="sans-serif" font-size="14" lengthAdjust="spacing" textLength="152" x="266" y="251.304">SelectiveCombinations</text><line style="stroke:#181818;stroke-width:0.5;" x1="238" x2="420" y1="261.872" y2="261.872"/><line style="stroke:#181818;stroke-width:0.5;" x1="238" x2="420" y1="269.872" y2="269.872"/></g><!--class Die--><g id="elem_Die"><rect codeLine="44" fill="#F1F1F1" height="48" id="Die" rx="2.5" ry="2.5" style="stroke:#181818;stroke-width:0.5;" width="54" x="1497" y="44.602"/><ellipse cx="1512" cy="60.602" fill="#ADD1B2" rx="11" ry="11" style="stroke:#181818;stroke-width:1.0;"/><path d="M1511.4688,67.5239 Q1509.7188,67.5239 1508.5781,66.7895 Q1507.4531,66.0395 1506.8906,64.6957 Q1506.3438,63.3364 1506.3438,61.5395 Q1506.3438,59.5082 1507,58.0551 Q1507.6563,56.602 1508.9375,55.8207 Q1510.2188,55.0395 1512.0938,55.0395 Q1512.9844,55.0395 1513.6563,55.227 Q1514.3281,55.3989 1515.0156,55.7426 L1514.2031,57.7582 Q1513.5781,57.4457 1513.0313,57.3207 Q1512.5,57.1957 1512.0156,57.1957 Q1510.8438,57.1957 1510.1406,57.727 Q1509.4375,58.2582 1509.1406,59.2114 Q1508.8438,60.1645 1508.8438,61.4301 Q1508.8438,63.4457 1509.5625,64.4145 Q1510.2813,65.3676 1511.875,65.3676 Q1512.4688,65.3676 1513.0938,65.2114 Q1513.7188,65.0551 1514.5469,64.6801 L1514.5469,66.8989 Q1513.8125,67.2114 1513.0156,67.3676 Q1512.2344,67.5239 1511.4688,67.5239 Z " fill="#000000"/><text fill="#000000" font-family="sans-serif" font-size="14" lengthAdjust="spacing" textLength="22" x="1526" y="66.034">Die</text><line style="stroke:#181818;stroke-width:0.5;" x1="1498" x2="1550" y1="76.602" y2="76.602"/><line style="stroke:#181818;stroke-width:0.5;" x1="1498" x2="1550" y1="84.602" y2="84.602"/></g><!--class numstat--><g id="elem_numstat"><rect codeLine="46" fill="#F1F1F1" height="48" id="numstat" rx="2.5" ry="2.5" style="stroke:#181818;stroke-width:0.5;" width="157" x="1316.5" y="453.282"/><ellipse cx="1331.5" cy="469.282" fill="#ADD1B2" rx="11" ry="11" style="stroke:#181818;stroke-width:1.0;"/><path d="M1330.9688,476.2039 Q1329.2188,476.2039 1328.0781,475.4695 Q1326.9531,474.7195 1326.3906,473.3757 Q1325.8438,472.0164 1325.8438,470.2195 Q1325.8438,468.1882 1326.5,466.7351 Q1327.1563,465.282 1328.4375,464.5007 Q1329.7188,463.7195 1331.5938,463.7195 Q1332.4844,463.7195 1333.1563,463.907 Q1333.8281,464.0789 1334.5156,464.4226 L1333.7031,466.4382 Q1333.0781,466.1257 1332.5313,466.0007 Q1332,465.8757 1331.5156,465.8757 Q1330.3438,465.8757 1329.6406,466.407 Q1328.9375,466.9382 1328.6406,467.8914 Q1328.3438,468.8445 1328.3438,470.1101 Q1328.3438,472.1257 1329.0625,473.0945 Q1329.7813,474.0476 1331.375,474.0476 Q1331.9688,474.0476 1332.5938,473.8914 Q1333.2188,473.7351 1334.0469,473.3601 L1334.0469,475.5789 Q1333.3125,475.8914 1332.5156,476.0476 Q1331.7344,476.2039 1330.9688,476.2039 Z " fill="#000000"/><text fill="#000000" font-family="sans-serif" font-size="14" lengthAdjust="spacing" textLength="125" x="1345.5" y="474.714">Number Statistical</text><line style="stroke:#181818;stroke-width:0.5;" x1="1317.5" x2="1472.5" y1="485.282" y2="485.282"/><line style="stroke:#181818;stroke-width:0.5;" x1="1317.5" x2="1472.5" y1="493.282" y2="493.282"/></g><!--class strstat--><g id="elem_strstat"><rect codeLine="47" fill="#F1F1F1" height="48" id="strstat" rx="2.5" ry="2.5" style="stroke:#181818;stroke-width:0.5;" width="142" x="1139" y="453.282"/><ellipse cx="1154" cy="469.282" fill="#ADD1B2" rx="11" ry="11" style="stroke:#181818;stroke-width:1.0;"/><path d="M1153.4688,476.2039 Q1151.7188,476.2039 1150.5781,475.4695 Q1149.4531,474.7195 1148.8906,473.3757 Q1148.3438,472.0164 1148.3438,470.2195 Q1148.3438,468.1882 1149,466.7351 Q1149.6563,465.282 1150.9375,464.5007 Q1152.2188,463.7195 1154.0938,463.7195 Q1154.9844,463.7195 1155.6563,463.907 Q1156.3281,464.0789 1157.0156,464.4226 L1156.2031,466.4382 Q1155.5781,466.1257 1155.0313,466.0007 Q1154.5,465.8757 1154.0156,465.8757 Q1152.8438,465.8757 1152.1406,466.407 Q1151.4375,466.9382 1151.1406,467.8914 Q1150.8438,468.8445 1150.8438,470.1101 Q1150.8438,472.1257 1151.5625,473.0945 Q1152.2813,474.0476 1153.875,474.0476 Q1154.4688,474.0476 1155.0938,473.8914 Q1155.7188,473.7351 1156.5469,473.3601 L1156.5469,475.5789 Q1155.8125,475.8914 1155.0156,476.0476 Q1154.2344,476.2039 1153.4688,476.2039 Z " fill="#000000"/><text fill="#000000" font-family="sans-serif" font-size="14" lengthAdjust="spacing" textLength="110" x="1168" y="474.714">String Statistical</text><line style="stroke:#181818;stroke-width:0.5;" x1="1140" x2="1280" y1="485.282" y2="485.282"/><line style="stroke:#181818;stroke-width:0.5;" x1="1140" x2="1280" y1="493.282" y2="493.282"/></g><!--class customstat--><g id="elem_customstat"><rect codeLine="48" fill="#F1F1F1" height="48" id="customstat" rx="2.5" ry="2.5" style="stroke:#181818;stroke-width:0.5;" width="165" x="1508.5" y="453.282"/><ellipse cx="1523.5" cy="469.282" fill="#ADD1B2" rx="11" ry="11" style="stroke:#181818;stroke-width:1.0;"/><path d="M1522.9688,476.2039 Q1521.2188,476.2039 1520.0781,475.4695 Q1518.9531,474.7195 1518.3906,473.3757 Q1517.8438,472.0164 1517.8438,470.2195 Q1517.8438,468.1882 1518.5,466.7351 Q1519.1563,465.282 1520.4375,464.5007 Q1521.7188,463.7195 1523.5938,463.7195 Q1524.4844,463.7195 1525.1563,463.907 Q1525.8281,464.0789 1526.5156,464.4226 L1525.7031,466.4382 Q1525.0781,466.1257 1524.5313,466.0007 Q1524,465.8757 1523.5156,465.8757 Q1522.3438,465.8757 1521.6406,466.407 Q1520.9375,466.9382 1520.6406,467.8914 Q1520.3438,468.8445 1520.3438,470.1101 Q1520.3438,472.1257 1521.0625,473.0945 Q1521.7813,474.0476 1523.375,474.0476 Q1523.9688,474.0476 1524.5938,473.8914 Q1525.2188,473.7351 1526.0469,473.3601 L1526.0469,475.5789 Q1525.3125,475.8914 1524.5156,476.0476 Q1523.7344,476.2039 1522.9688,476.2039 Z " fill="#000000"/><text fill="#000000" font-family="sans-serif" font-size="14" lengthAdjust="spacing" textLength="133" x="1537.5" y="474.714">Cumstom Statistical</text><line style="stroke:#181818;stroke-width:0.5;" x1="1509.5" x2="1672.5" y1="485.282" y2="485.282"/><line style="stroke:#181818;stroke-width:0.5;" x1="1509.5" x2="1672.5" y1="493.282" y2="493.282"/></g><!--class basestat--><g id="elem_basestat"><rect codeLine="49" fill="#F1F1F1" height="48" id="basestat" rx="2.5" ry="2.5" style="stroke:#181818;stroke-width:0.5;" width="133" x="1342.5" y="693.622"/><ellipse cx="1357.5" cy="709.622" fill="#ADD1B2" rx="11" ry="11" style="stroke:#181818;stroke-width:1.0;"/><path d="M1356.9688,716.5439 Q1355.2188,716.5439 1354.0781,715.8095 Q1352.9531,715.0595 1352.3906,713.7157 Q1351.8438,712.3564 1351.8438,710.5595 Q1351.8438,708.5282 1352.5,707.0751 Q1353.1563,705.622 1354.4375,704.8407 Q1355.7188,704.0595 1357.5938,704.0595 Q1358.4844,704.0595 1359.1563,704.247 Q1359.8281,704.4189 1360.5156,704.7626 L1359.7031,706.7782 Q1359.0781,706.4657 1358.5313,706.3407 Q1358,706.2157 1357.5156,706.2157 Q1356.3438,706.2157 1355.6406,706.747 Q1354.9375,707.2782 1354.6406,708.2314 Q1354.3438,709.1845 1354.3438,710.4501 Q1354.3438,712.4657 1355.0625,713.4345 Q1355.7813,714.3876 1357.375,714.3876 Q1357.9688,714.3876 1358.5938,714.2314 Q1359.2188,714.0751 1360.0469,713.7001 L1360.0469,715.9189 Q1359.3125,716.2314 1358.5156,716.3876 Q1357.7344,716.5439 1356.9688,716.5439 Z " fill="#000000"/><text fill="#000000" font-family="sans-serif" font-size="14" lengthAdjust="spacing" textLength="101" x="1371.5" y="715.054">Base Statistical</text><line style="stroke:#181818;stroke-width:0.5;" x1="1343.5" x2="1474.5" y1="725.622" y2="725.622"/><line style="stroke:#181818;stroke-width:0.5;" x1="1343.5" x2="1474.5" y1="733.622" y2="733.622"/></g><!--class PoolImpl--><g id="elem_PoolImpl"><rect codeLine="50" fill="#F1F1F1" height="48" id="PoolImpl" rx="2.5" ry="2.5" style="stroke:#181818;stroke-width:0.5;" width="91" x="1128.5" y="44.602"/><ellipse cx="1143.5" cy="60.602" fill="#ADD1B2" rx="11" ry="11" style="stroke:#181818;stroke-width:1.0;"/><path d="M1142.9688,67.5239 Q1141.2188,67.5239 1140.0781,66.7895 Q1138.9531,66.0395 1138.3906,64.6957 Q1137.8438,63.3364 1137.8438,61.5395 Q1137.8438,59.5082 1138.5,58.0551 Q1139.1563,56.602 1140.4375,55.8207 Q1141.7188,55.0395 1143.5938,55.0395 Q1144.4844,55.0395 1145.1563,55.227 Q1145.8281,55.3989 1146.5156,55.7426 L1145.7031,57.7582 Q1145.0781,57.4457 1144.5313,57.3207 Q1144,57.1957 1143.5156,57.1957 Q1142.3438,57.1957 1141.6406,57.727 Q1140.9375,58.2582 1140.6406,59.2114 Q1140.3438,60.1645 1140.3438,61.4301 Q1140.3438,63.4457 1141.0625,64.4145 Q1141.7813,65.3676 1143.375,65.3676 Q1143.9688,65.3676 1144.5938,65.2114 Q1145.2188,65.0551 1146.0469,64.6801 L1146.0469,66.8989 Q1145.3125,67.2114 1144.5156,67.3676 Q1143.7344,67.5239 1142.9688,67.5239 Z " fill="#000000"/><text fill="#000000" font-family="sans-serif" font-size="14" lengthAdjust="spacing" textLength="59" x="1157.5" y="66.034">PoolImpl</text><line style="stroke:#181818;stroke-width:0.5;" x1="1129.5" x2="1218.5" y1="76.602" y2="76.602"/><line style="stroke:#181818;stroke-width:0.5;" x1="1129.5" x2="1218.5" y1="84.602" y2="84.602"/></g><!--class BagImpl--><g id="elem_BagImpl"><rect codeLine="51" fill="#F1F1F1" height="48" id="BagImpl" rx="2.5" ry="2.5" style="stroke:#181818;stroke-width:0.5;" width="89" x="1254.5" y="44.602"/><ellipse cx="1269.5" cy="60.602" fill="#ADD1B2" rx="11" ry="11" style="stroke:#181818;stroke-width:1.0;"/><path d="M1268.9688,67.5239 Q1267.2188,67.5239 1266.0781,66.7895 Q1264.9531,66.0395 1264.3906,64.6957 Q1263.8438,63.3364 1263.8438,61.5395 Q1263.8438,59.5082 1264.5,58.0551 Q1265.1563,56.602 1266.4375,55.8207 Q1267.7188,55.0395 1269.5938,55.0395 Q1270.4844,55.0395 1271.1563,55.227 Q1271.8281,55.3989 1272.5156,55.7426 L1271.7031,57.7582 Q1271.0781,57.4457 1270.5313,57.3207 Q1270,57.1957 1269.5156,57.1957 Q1268.3438,57.1957 1267.6406,57.727 Q1266.9375,58.2582 1266.6406,59.2114 Q1266.3438,60.1645 1266.3438,61.4301 Q1266.3438,63.4457 1267.0625,64.4145 Q1267.7813,65.3676 1269.375,65.3676 Q1269.9688,65.3676 1270.5938,65.2114 Q1271.2188,65.0551 1272.0469,64.6801 L1272.0469,66.8989 Q1271.3125,67.2114 1270.5156,67.3676 Q1269.7344,67.5239 1268.9688,67.5239 Z " fill="#000000"/><text fill="#000000" font-family="sans-serif" font-size="14" lengthAdjust="spacing" textLength="57" x="1283.5" y="66.034">BagImpl</text><line style="stroke:#181818;stroke-width:0.5;" x1="1255.5" x2="1342.5" y1="76.602" y2="76.602"/><line style="stroke:#181818;stroke-width:0.5;" x1="1255.5" x2="1342.5" y1="84.602" y2="84.602"/></g><!--class Statistical--><g id="elem_Statistical"><rect codeLine="52" fill="#F1F1F1" height="200.5433" id="Statistical" rx="2.5" ry="2.5" style="stroke:#181818;stroke-width:0.5;" width="101" x="1572.5" y="153.602"/><ellipse cx="1590.65" cy="169.602" fill="#B4A7E5" rx="11" ry="11" style="stroke:#181818;stroke-width:1.0;"/><path d="M1586.6813,176.102 L1586.6813,174.3989 L1589.0406,174.1332 L1589.0406,165.9301 L1586.6813,165.6645 L1586.6813,163.9614 L1593.8219,163.9614 L1593.8219,165.6645 L1591.4,165.9301 L1591.4,174.1332 L1593.8219,174.3989 L1593.8219,176.102 L1586.6813,176.102 Z " fill="#000000"/><text fill="#000000" font-family="sans-serif" font-size="14" font-style="italic" lengthAdjust="spacing" textLength="62" x="1605.35" y="175.034">Statistical</text><line style="stroke:#181818;stroke-width:0.5;" x1="1573.5" x2="1672.5" y1="185.602" y2="185.602"/><ellipse cx="1583.5" cy="200.6359" fill="none" rx="3" ry="3" style="stroke:#038048;stroke-width:1.0;"/><text fill="#000000" font-family="sans-serif" font-size="14" lengthAdjust="spacing" textLength="38" x="1592.5" y="204.5679">mean</text><ellipse cx="1583.5" cy="219.7039" fill="none" rx="3" ry="3" style="stroke:#038048;stroke-width:1.0;"/><text fill="#000000" font-family="sans-serif" font-size="14" lengthAdjust="spacing" textLength="21" x="1592.5" y="223.6358">std</text><ellipse cx="1583.5" cy="238.7718" fill="none" rx="3" ry="3" style="stroke:#038048;stroke-width:1.0;"/><text fill="#000000" font-family="sans-serif" font-size="14" lengthAdjust="spacing" textLength="49" x="1592.5" y="242.7038">varians</text><line style="stroke:#181818;stroke-width:0.5;" x1="1573.5" x2="1672.5" y1="250.8057" y2="250.8057"/><ellipse cx="1583.5" cy="265.8397" fill="#84BE84" rx="3" ry="3" style="stroke:#038048;stroke-width:1.0;"/><text fill="#000000" font-family="sans-serif" font-size="14" lengthAdjust="spacing" textLength="45" x="1592.5" y="269.7717">items()</text><ellipse cx="1583.5" cy="284.9076" fill="#84BE84" rx="3" ry="3" style="stroke:#038048;stroke-width:1.0;"/><text fill="#000000" font-family="sans-serif" font-size="14" lengthAdjust="spacing" textLength="37" x="1592.5" y="288.8396">keys()</text><ellipse cx="1583.5" cy="303.9755" fill="#84BE84" rx="3" ry="3" style="stroke:#038048;stroke-width:1.0;"/><text fill="#000000" font-family="sans-serif" font-size="14" lengthAdjust="spacing" textLength="51" x="1592.5" y="307.9075">values()</text><ellipse cx="1583.5" cy="323.0434" fill="#84BE84" rx="3" ry="3" style="stroke:#038048;stroke-width:1.0;"/><text fill="#000000" font-family="sans-serif" font-size="14" lengthAdjust="spacing" textLength="38" x="1592.5" y="326.9754">map()</text><ellipse cx="1583.5" cy="342.1114" fill="#84BE84" rx="3" ry="3" style="stroke:#038048;stroke-width:1.0;"/><text fill="#000000" font-family="sans-serif" font-size="14" lengthAdjust="spacing" textLength="75" x="1592.5" y="346.0433">normalize()</text></g><!--class die--><g id="elem_die"><rect codeLine="62" fill="#F1F1F1" height="162.4075" id="die" rx="2.5" ry="2.5" style="stroke:#181818;stroke-width:0.5;" width="223" x="1314.5" y="172.672"/><ellipse cx="1411.75" cy="188.672" fill="#B4A7E5" rx="11" ry="11" style="stroke:#181818;stroke-width:1.0;"/><path d="M1407.7813,195.172 L1407.7813,193.4689 L1410.1406,193.2032 L1410.1406,185.0001 L1407.7813,184.7345 L1407.7813,183.0314 L1414.9219,183.0314 L1414.9219,184.7345 L1412.5,185.0001 L1412.5,193.2032 L1414.9219,193.4689 L1414.9219,195.172 L1407.7813,195.172 Z " fill="#000000"/><text fill="#000000" font-family="sans-serif" font-size="14" font-style="italic" lengthAdjust="spacing" textLength="20" x="1432.25" y="194.104">Die</text><line style="stroke:#181818;stroke-width:0.5;" x1="1315.5" x2="1536.5" y1="204.672" y2="204.672"/><ellipse cx="1325.5" cy="219.7059" fill="none" rx="3" ry="3" style="stroke:#038048;stroke-width:1.0;"/><text fill="#000000" font-family="sans-serif" font-size="14" lengthAdjust="spacing" textLength="38" x="1334.5" y="223.6379">mean</text><ellipse cx="1325.5" cy="238.7739" fill="none" rx="3" ry="3" style="stroke:#038048;stroke-width:1.0;"/><text fill="#000000" font-family="sans-serif" font-size="14" lengthAdjust="spacing" textLength="21" x="1334.5" y="242.7058">std</text><ellipse cx="1325.5" cy="257.8418" fill="none" rx="3" ry="3" style="stroke:#038048;stroke-width:1.0;"/><text fill="#000000" font-family="sans-serif" font-size="14" lengthAdjust="spacing" textLength="49" x="1334.5" y="261.7738">varians</text><line style="stroke:#181818;stroke-width:0.5;" x1="1315.5" x2="1536.5" y1="269.8757" y2="269.8757"/><text fill="#000000" font-family="sans-serif" font-size="14" lengthAdjust="spacing" textLength="197" x="1334.5" y="288.8417">&#171;Die manipulation functions&#187;</text><text fill="#000000" font-family="sans-serif" font-size="14" lengthAdjust="spacing" textLength="144" x="1334.5" y="307.9096">&#171;Operator overloads&#187;</text><ellipse cx="1325.5" cy="323.0455" fill="#84BE84" rx="3" ry="3" style="stroke:#038048;stroke-width:1.0;"/><text fill="#000000" font-family="sans-serif" font-size="14" lengthAdjust="spacing" textLength="90" x="1334.5" y="326.9775">map(callable)</text></g><!--class Pool--><g id="elem_Pool"><rect codeLine="70" fill="#F1F1F1" height="48" id="Pool" rx="2.5" ry="2.5" style="stroke:#181818;stroke-width:0.5;" width="60" x="1128" y="229.872"/><ellipse cx="1143" cy="245.872" fill="#B4A7E5" rx="11" ry="11" style="stroke:#181818;stroke-width:1.0;"/><path d="M1139.0313,252.372 L1139.0313,250.6689 L1141.3906,250.4032 L1141.3906,242.2001 L1139.0313,241.9345 L1139.0313,240.2314 L1146.1719,240.2314 L1146.1719,241.9345 L1143.75,242.2001 L1143.75,250.4032 L1146.1719,250.6689 L1146.1719,252.372 L1139.0313,252.372 Z " fill="#000000"/><text fill="#000000" font-family="sans-serif" font-size="14" font-style="italic" lengthAdjust="spacing" textLength="28" x="1157" y="251.304">Pool</text><line style="stroke:#181818;stroke-width:0.5;" x1="1129" x2="1187" y1="261.872" y2="261.872"/><line style="stroke:#181818;stroke-width:0.5;" x1="1129" x2="1187" y1="269.872" y2="269.872"/></g><!--class Bag--><g id="elem_Bag"><rect codeLine="71" fill="#F1F1F1" height="48" id="Bag" rx="2.5" ry="2.5" style="stroke:#181818;stroke-width:0.5;" width="56" x="1223" y="229.872"/><ellipse cx="1238" cy="245.872" fill="#B4A7E5" rx="11" ry="11" style="stroke:#181818;stroke-width:1.0;"/><path d="M1234.0313,252.372 L1234.0313,250.6689 L1236.3906,250.4032 L1236.3906,242.2001 L1234.0313,241.9345 L1234.0313,240.2314 L1241.1719,240.2314 L1241.1719,241.9345 L1238.75,242.2001 L1238.75,250.4032 L1241.1719,250.6689 L1241.1719,252.372 L1234.0313,252.372 Z " fill="#000000"/><text fill="#000000" font-family="sans-serif" font-size="14" font-style="italic" lengthAdjust="spacing" textLength="24" x="1252" y="251.304">Bag</text><line style="stroke:#181818;stroke-width:0.5;" x1="1224" x2="1278" y1="261.872" y2="261.872"/><line style="stroke:#181818;stroke-width:0.5;" x1="1224" x2="1278" y1="269.872" y2="269.872"/></g><!--class string--><g id="elem_string"><rect codeLine="72" fill="#F1F1F1" height="86.1358" id="string" rx="2.5" ry="2.5" style="stroke:#181818;stroke-width:0.5;" width="180" x="1128" y="674.552"/><ellipse cx="1195.25" cy="690.552" fill="#B4A7E5" rx="11" ry="11" style="stroke:#181818;stroke-width:1.0;"/><path d="M1191.2813,697.052 L1191.2813,695.3489 L1193.6406,695.0832 L1193.6406,686.8801 L1191.2813,686.6145 L1191.2813,684.9114 L1198.4219,684.9114 L1198.4219,686.6145 L1196,686.8801 L1196,695.0832 L1198.4219,695.3489 L1198.4219,697.052 L1191.2813,697.052 Z " fill="#000000"/><text fill="#000000" font-family="sans-serif" font-size="14" font-style="italic" lengthAdjust="spacing" textLength="37" x="1215.75" y="695.984">string</text><line style="stroke:#181818;stroke-width:0.5;" x1="1129" x2="1307" y1="706.552" y2="706.552"/><text fill="#000000" font-family="sans-serif" font-size="14" lengthAdjust="spacing" textLength="168" x="1134" y="725.5179">Everything that subtypes</text><text fill="#000000" font-family="sans-serif" font-size="14" lengthAdjust="spacing" textLength="103" x="1134" y="744.5858">a python.string</text><line style="stroke:#181818;stroke-width:0.5;" x1="1129" x2="1307" y1="752.6878" y2="752.6878"/></g><!--class SortedString--><g id="elem_SortedString"><rect codeLine="77" fill="#F1F1F1" height="48" id="SortedString" rx="2.5" ry="2.5" style="stroke:#181818;stroke-width:0.5;" width="117" x="954.5" y="453.282"/><ellipse cx="969.5" cy="469.282" fill="#ADD1B2" rx="11" ry="11" style="stroke:#181818;stroke-width:1.0;"/><path d="M968.9688,476.2039 Q967.2188,476.2039 966.0781,475.4695 Q964.9531,474.7195 964.3906,473.3757 Q963.8438,472.0164 963.8438,470.2195 Q963.8438,468.1882 964.5,466.7351 Q965.1563,465.282 966.4375,464.5007 Q967.7188,463.7195 969.5938,463.7195 Q970.4844,463.7195 971.1563,463.907 Q971.8281,464.0789 972.5156,464.4226 L971.7031,466.4382 Q971.0781,466.1257 970.5313,466.0007 Q970,465.8757 969.5156,465.8757 Q968.3438,465.8757 967.6406,466.407 Q966.9375,466.9382 966.6406,467.8914 Q966.3438,468.8445 966.3438,470.1101 Q966.3438,472.1257 967.0625,473.0945 Q967.7813,474.0476 969.375,474.0476 Q969.9688,474.0476 970.5938,473.8914 Q971.2188,473.7351 972.0469,473.3601 L972.0469,475.5789 Q971.3125,475.8914 970.5156,476.0476 Q969.7344,476.2039 968.9688,476.2039 Z " fill="#000000"/><text fill="#000000" font-family="sans-serif" font-size="14" lengthAdjust="spacing" textLength="85" x="983.5" y="474.714">SortedString</text><line style="stroke:#181818;stroke-width:0.5;" x1="955.5" x2="1070.5" y1="485.282" y2="485.282"/><line style="stroke:#181818;stroke-width:0.5;" x1="955.5" x2="1070.5" y1="493.282" y2="493.282"/></g><!--link DefaultCollection to collection--><g id="link_DefaultCollection_collection"><path codeLine="81" d="M597.47,278.152 C596.75,310.342 595.8186,351.6366 594.7886,396.9966 " fill="none" id="DefaultCollection-to-collection" style="stroke:#181818;stroke-width:1.0;stroke-dasharray:7.0,7.0;"/><polygon fill="none" points="594.38,414.992,600.7871,397.1328,588.7902,396.8604,594.38,414.992" style="stroke:#181818;stroke-width:1.0;"/></g><!--link collection to group--><g id="link_collection_group"><path codeLine="82" d="M574.97,539.662 C566.34,569.032 557.5912,598.8353 548.3312,630.3553 " fill="none" id="collection-to-group" style="stroke:#181818;stroke-width:1.0;"/><polygon fill="#181818" points="546.64,636.112,553.0146,628.6044,548.0493,631.3147,545.339,626.3494,546.64,636.112" style="stroke:#181818;stroke-width:1.0;"/></g><!--link DefaultGroup to group--><g id="link_DefaultGroup_group"><path codeLine="83" d="M333.52,501.562 C360.82,532.552 398.5806,575.4062 440.2106,622.6562 " fill="none" id="DefaultGroup-to-group" style="stroke:#181818;stroke-width:1.0;stroke-dasharray:7.0,7.0;"/><polygon fill="none" points="452.11,636.162,444.7126,618.6898,435.7087,626.6227,452.11,636.162" style="stroke:#181818;stroke-width:1.0;"/></g><!--link group to mapping--><g id="link_group_mapping"><path codeLine="84" d="M550.98,799.022 C559.86,824.522 567.6268,846.8657 576.2668,871.6757 " fill="none" id="group-to-mapping" style="stroke:#181818;stroke-width:1.0;"/><polygon fill="#181818" points="578.24,877.342,579.0576,867.5271,576.5956,872.6201,571.5026,870.1581,578.24,877.342" style="stroke:#181818;stroke-width:1.0;"/></g><!--link group to slice--><g id="link_group_slice"><path codeLine="85" d="M442.21,799.022 C413.19,827.892 385.2128,855.7295 358.0628,882.7495 " fill="none" id="group-to-slice" style="stroke:#181818;stroke-width:1.0;"/><polygon fill="#181818" points="353.81,886.982,363.0108,883.4685,357.354,883.4549,357.3676,877.7981,353.81,886.982" style="stroke:#181818;stroke-width:1.0;"/><text fill="#000000" font-family="sans-serif" font-size="13" lengthAdjust="spacing" textLength="71" x="408.5" y="843.719">for selective</text></g><!--link sliceClass to slice--><g id="link_sliceClass_slice"><path codeLine="86" d="M292,741.922 C292,775.712 292,821.472 292,869.262 " fill="none" id="sliceClass-to-slice" style="stroke:#181818;stroke-width:1.0;stroke-dasharray:7.0,7.0;"/><polygon fill="none" points="292,887.262,298,869.262,286,869.262,292,887.262" style="stroke:#181818;stroke-width:1.0;"/></g><!--link GroupCombinations to group--><g id="link_GroupCombinations_group"><path codeLine="87" d="M174.75,511.172 C229.19,543.282 309.0126,590.3728 381.3926,633.0828 " fill="none" id="GroupCombinations-to-group" style="stroke:#181818;stroke-width:1.0;"/><polygon fill="#181818" points="386.56,636.132,380.8416,628.1132,382.2538,633.591,376.776,635.0031,386.56,636.132" style="stroke:#181818;stroke-width:1.0;"/></g><!--link RegularCombinations to GroupCombinations--><g id="link_RegularCombinations_GroupCombinations"><path codeLine="88" d="M113.63,278.152 C114.7,317.672 116.3913,380.0286 117.6213,425.3186 " fill="none" id="RegularCombinations-to-GroupCombinations" style="stroke:#181818;stroke-width:1.0;stroke-dasharray:7.0,7.0;"/><polygon fill="none" points="118.11,443.312,123.6191,425.1557,111.6235,425.4815,118.11,443.312" style="stroke:#181818;stroke-width:1.0;"/></g><!--link SelectiveCombinations to GroupCombinations--><g id="link_SelectiveCombinations_GroupCombinations"><path codeLine="89" d="M306.92,278.152 C269.43,317.672 205.6176,384.9626 162.6576,430.2526 " fill="none" id="SelectiveCombinations-to-GroupCombinations" style="stroke:#181818;stroke-width:1.0;stroke-dasharray:7.0,7.0;"/><polygon fill="none" points="150.27,443.312,167.0107,434.3818,158.3044,426.1234,150.27,443.312" style="stroke:#181818;stroke-width:1.0;"/></g><!--link Die to die--><g id="link_Die_die"><path codeLine="92" d="M1511.59,92.812 C1500.82,112.942 1493.0785,127.4392 1477.6285,156.3292 " fill="none" id="Die-to-die" style="stroke:#181818;stroke-width:1.0;stroke-dasharray:7.0,7.0;"/><polygon fill="none" points="1469.14,172.202,1482.9195,159.1587,1472.3376,153.4997,1469.14,172.202" style="stroke:#181818;stroke-width:1.0;"/></g><!--link Die to Statistical--><g id="link_Die_Statistical"><path codeLine="93" d="M1536.54,92.812 C1545.75,109.862 1556.0682,128.973 1569.3682,153.593 " fill="none" id="Die-to-Statistical" style="stroke:#181818;stroke-width:1.0;"/><polygon fill="#181818" points="1572.22,158.872,1571.4617,149.0524,1569.8435,154.4728,1564.4231,152.8547,1572.22,158.872" style="stroke:#181818;stroke-width:1.0;"/></g><!--link die to mapping--><g id="link_die_mapping"><path codeLine="94" d="M1332.15,335.422 C1320.8,342.602 1308.97,349.062 1297,354.142 C1148.53,417.162 1072.76,318.652 938,407.282 C915.29,422.212 738.7633,718.373 654.0333,861.843 " fill="none" id="die-to-mapping" style="stroke:#181818;stroke-width:1.0;"/><polygon fill="none" points="644.88,877.342,659.1996,864.8941,648.867,858.7919,644.88,877.342" style="stroke:#181818;stroke-width:1.0;"/></g><!--reverse link Statistical to numstat--><g id="link_Statistical_numstat"><path codeLine="95" d="M1561.0071,348.3104 C1555.4971,355.2904 1560.9,347.932 1555,354.142 C1534.18,376.062 1468.43,424.132 1427.99,453.002 " fill="none" id="Statistical-backto-numstat" style="stroke:#181818;stroke-width:1.0;stroke-dasharray:7.0,7.0;"/><polygon fill="none" points="1572.16,334.182,1556.2976,344.5927,1565.7165,352.028,1572.16,334.182" style="stroke:#181818;stroke-width:1.0;"/></g><!--reverse link Statistical to strstat--><g id="link_Statistical_strstat"><path codeLine="96" d="M1559.318,352.7258 C1554.028,357.9958 1561.09,350.092 1555,354.142 C1458.28,418.542 1404.52,358.622 1299,407.282 C1274.5,418.582 1250.55,437.742 1233.68,453.012 " fill="none" id="Statistical-backto-strstat" style="stroke:#181818;stroke-width:1.0;stroke-dasharray:7.0,7.0;"/><polygon fill="none" points="1572.07,340.022,1555.0834,348.4751,1563.5526,356.9764,1572.07,340.022" style="stroke:#181818;stroke-width:1.0;"/></g><!--reverse link Statistical to customstat--><g id="link_Statistical_customstat"><path codeLine="97" d="M1606.0178,372.3772 C1600.7478,408.8772 1597.81,429.172 1594.39,452.822 " fill="none" id="Statistical-backto-customstat" style="stroke:#181818;stroke-width:1.0;stroke-dasharray:7.0,7.0;"/><polygon fill="none" points="1608.59,354.562,1600.0793,371.5198,1611.9562,373.2347,1608.59,354.562" style="stroke:#181818;stroke-width:1.0;"/></g><!--link numstat to basestat--><g id="link_numstat_basestat"><path codeLine="98" d="M1396.37,501.562 C1399.04,547.132 1403.8951,629.6229 1406.5751,675.2729 " fill="none" id="numstat-to-basestat" style="stroke:#181818;stroke-width:1.0;"/><polygon fill="none" points="1407.63,693.242,1412.5648,674.9213,1400.5854,675.6246,1407.63,693.242" style="stroke:#181818;stroke-width:1.0;"/><text fill="#000000" font-family="sans-serif" font-size="13" lengthAdjust="spacing" textLength="40" x="1403.92" y="584.309">special</text><text fill="#000000" font-family="sans-serif" font-size="13" lengthAdjust="spacing" textLength="41" x="1403.42" y="602.015">case of</text></g><!--link strstat to basestat--><g id="link_strstat_basestat"><path codeLine="99" d="M1229.44,501.562 C1267.49,547.132 1339.8345,633.7742 1377.9445,679.4242 " fill="none" id="strstat-to-basestat" style="stroke:#181818;stroke-width:1.0;"/><polygon fill="none" points="1389.48,693.242,1382.5504,675.579,1373.3385,683.2694,1389.48,693.242" style="stroke:#181818;stroke-width:1.0;"/><text fill="#000000" font-family="sans-serif" font-size="13" lengthAdjust="spacing" textLength="40" x="1316.97" y="584.309">special</text><text fill="#000000" font-family="sans-serif" font-size="13" lengthAdjust="spacing" textLength="41" x="1316.47" y="602.015">case of</text></g><!--link customstat to basestat--><g id="link_customstat_basestat"><path codeLine="100" d="M1573.22,501.562 C1538.42,547.132 1472.6344,633.2862 1437.7744,678.9362 " fill="none" id="customstat-to-basestat" style="stroke:#181818;stroke-width:1.0;"/><polygon fill="none" points="1426.85,693.242,1442.5431,682.5776,1433.0058,675.2947,1426.85,693.242" style="stroke:#181818;stroke-width:1.0;"/><text fill="#000000" font-family="sans-serif" font-size="13" lengthAdjust="spacing" textLength="40" x="1517.8" y="584.309">special</text><text fill="#000000" font-family="sans-serif" font-size="13" lengthAdjust="spacing" textLength="41" x="1517.3" y="602.015">case of</text></g><!--link strstat to string--><g id="link_strstat_string"><path codeLine="101" d="M1210.78,501.562 C1212.13,541.622 1214.6988,618.1254 1216.3888,668.4854 " fill="none" id="strstat-to-string" style="stroke:#181818;stroke-width:1.0;"/><polygon fill="#181818" points="1216.59,674.482,1220.2859,665.3529,1216.4223,669.4848,1212.2904,665.6212,1216.59,674.482" style="stroke:#181818;stroke-width:1.0;"/></g><!--link SortedString to string--><g id="link_SortedString_string"><path codeLine="102" d="M1033.03,501.562 C1067.49,541.622 1126.7017,610.476 1170.0217,660.836 " fill="none" id="SortedString-to-string" style="stroke:#181818;stroke-width:1.0;stroke-dasharray:7.0,7.0;"/><polygon fill="none" points="1181.76,674.482,1174.5703,656.9233,1165.473,664.7488,1181.76,674.482" style="stroke:#181818;stroke-width:1.0;"/></g><!--link Pool to collection--><g id="link_Pool_collection"><path codeLine="103" d="M1127.93,265.152 C1066.58,286.272 922.74,336.592 804,384.142 C780.16,393.692 771.5255,397.1401 747.2055,407.6001 " fill="none" id="Pool-to-collection" style="stroke:#181818;stroke-width:1.0;"/><polygon fill="none" points="730.67,414.712,749.5761,413.1119,744.8348,402.0883,730.67,414.712" style="stroke:#181818;stroke-width:1.0;"/></g><!--link PoolImpl to Pool--><g id="link_PoolImpl_Pool"><path codeLine="104" d="M1171.97,92.812 C1168.9,127.972 1164.6731,176.41 1161.6031,211.63 " fill="none" id="PoolImpl-to-Pool" style="stroke:#181818;stroke-width:1.0;stroke-dasharray:7.0,7.0;"/><polygon fill="none" points="1160.04,229.562,1167.5804,212.151,1155.6257,211.109,1160.04,229.562" style="stroke:#181818;stroke-width:1.0;"/></g><!--link PoolImpl to DefaultCollection--><g id="link_PoolImpl_DefaultCollection"><path codeLine="105" d="M1128.11,70.732 C1026.22,73.912 784.51,85.282 713,122.602 C666.06,147.092 638.7557,183.8362 620.3657,214.1962 " fill="none" id="PoolImpl-to-DefaultCollection" style="stroke:#181818;stroke-width:1.0;"/><polygon fill="none" points="611.04,229.592,625.4977,217.3047,615.2338,211.0876,611.04,229.592" style="stroke:#181818;stroke-width:1.0;"/></g><!--link Bag to group--><g id="link_Bag_group"><path codeLine="106" d="M1247.12,278.032 C1241.89,301.372 1230.16,336.422 1205,354.142 C1084.61,438.962 997.35,302.172 875,384.142 C810.34,427.472 846.27,481.742 794,539.412 C756.82,580.442 723.4329,606.6545 677.5929,635.0445 " fill="none" id="Bag-to-group" style="stroke:#181818;stroke-width:1.0;"/><polygon fill="none" points="662.29,644.522,680.752,640.1454,674.4337,629.9435,662.29,644.522" style="stroke:#181818;stroke-width:1.0;"/></g><!--link BagImpl to Bag--><g id="link_BagImpl_Bag"><path codeLine="107" d="M1292.92,92.812 C1283.71,127.972 1270.8885,176.9288 1261.6685,212.1488 " fill="none" id="BagImpl-to-Bag" style="stroke:#181818;stroke-width:1.0;stroke-dasharray:7.0,7.0;"/><polygon fill="none" points="1257.11,229.562,1267.4729,213.6683,1255.8641,210.6293,1257.11,229.562" style="stroke:#181818;stroke-width:1.0;"/></g><!--link BagImpl to DefaultGroup--><g id="link_BagImpl_DefaultGroup"><path codeLine="108" d="M1254.04,89.332 C1215.87,106.172 1159.7,131.152 1111,153.602 C922.41,240.522 886.74,290.732 689,354.142 C561.31,395.092 512.89,349.252 392,407.282 C369.18,418.232 360.2707,424.6041 345.5407,440.0541 " fill="none" id="BagImpl-to-DefaultGroup" style="stroke:#181818;stroke-width:1.0;"/><polygon fill="none" points="333.12,453.082,349.8834,444.1944,341.1981,435.9139,333.12,453.082" style="stroke:#181818;stroke-width:1.0;"/></g><!--SRC=[hLLDRnen4Btlhx2u11JW1w28GzEgog5jL8uXYent08jTUsjxQId9V-zul1zUTgaYjHnMUFncx3VpPknqmPnc6-sSpbag3GWdjKeABWvy1smaj87HEM7u4nctbds4BIypTw-pB633vXjzfN9WjboWOmiOCMwPQ9OiE514hHoN2WpJMxRXEpjbfOMKRRN1lNmZ5NVQI9unmRCouzxThfK1_8imlFXdeyjYHjzmE0_thq_mGHatm8G1yh5G8CX1TcemjwmmK21eF66p9NlmKJOPF8qfx1HlKYetUOveTZ91g2j9e3tYlsjHFUOvBmgfOlPhPGiGSYl5zJmqiMht8PxleVab-4zH1JghU7OSLfaKbHVzZH0lBpjmqa7-yZ9-FBczLdFh8PF5DLK4Dfv0TIwbf-BG9kW3jqX-Wp84XPK-5J2i2b6dOxfMSilS7bWEU8yqf2E5BMOvzNR5fCCwQ1tqXQcUHqGy1pkUH9O3dBg68-OUQbDWTaz2655MY0UH9-ibymjCo_Gsf3Vdzh1WA_XHWXBmX9xFas5CGNaEOIA8WbyklYyMxzYvR7iPacLSYhWdgvn2BNzDGaBKXFLQu3li46lYK6sa7de5D0AEy5VyMz9EdnGfYZrNGjeHwqmX2UTU_D7NCjzWIwqSXhPE8XLAk2fpYwOOkN86vTP3McSkaVVU6MVZ9LIKtdo9Hjb23xf1umNm4Llj8I-ooFI1xnfBMweerlaVv1fCs6MTjT8cvvdy3LqKS1KjhKixKR7pgk7Jwswi2X5EPQJlS-Z7jxixtCOhA5bKFSksfQ9nRPVB0VWt4XwsgZw2oJHFOzYjvu99oVmC-o-tzoMvC659BYoMTDEI-uHNmtRqMd9xxfWjDtvMuIF5gpwT1vT6t8ss7utCfUy6stbVLzhW_0xwzBrmur_WfFVgildyTHczgadqmCvmKDDxayHFLF08TleIhXgyaONcoe9cfAqRDcddMWX3wwG_HzgZ1qP3SEqv9ODpuHhu9WLnmA-amI25JRoi28msMlXBH7t3afIChotRQYAmULbunmYSL2DWQAjj-Q7TEkOirJ-LFwnk-mMZnvndQoNyUC0Nlpdb7U3us1wSBNhm9hIlPP1HhAcgVc73Qpva9b9IFPi2ajgYCH6s9yO46oLiXTfNeom4y4rK6s9tAkqV]--></g></svg>