<?xml version="1.0" encoding="us-ascii" standalone="no"?><svg xmlns="http://www.w3.org/2000/svg" xmlns:xlink="http://www.w3.org/1999/xlink" contentStyleType="text/css" height="846px" preserveAspectRatio="none" style="width:1932px;height:846px;background:#FFFFFF;" version="1.1" viewBox="0 0 1932 846" width="1932px" zoomAndPan="magnify"><defs/><g><!--cluster core--><g id="cluster_core"><path d="M436.5,6.602 L467.5,6.602 A3.75,3.75 0 0 1 470,9.102 L477,31.6699 L1157.5,31.6699 A2.5,2.5 0 0 1 1160,34.1699 L1160,666.252 A2.5,2.5 0 0 1 1157.5,668.752 L436.5,668.752 A2.5,2.5 0 0 1 434,666.252 L434,9.102 A2.5,2.5 0 0 1 436.5,6.602 " fill="none" style="stroke:#000000;stroke-width:1.5;"/><line style="stroke:#000000;stroke-width:1.5;" x1="434" x2="477" y1="31.6699" y2="31.6699"/><text fill="#000000" font-family="sans-serif" font-size="14" font-weight="bold" lengthAdjust="spacing" textLength="30" x="438" y="23.5679">core</text></g><!--cluster dicechancis--><g id="cluster_dicechancis"><path d="M1186.5,44.732 L1266.5,44.732 A3.75,3.75 0 0 1 1269,47.232 L1276,69.7999 L1748.5,69.7999 A2.5,2.5 0 0 1 1751,72.2999 L1751,837.252 A2.5,2.5 0 0 1 1748.5,839.752 L1186.5,839.752 A2.5,2.5 0 0 1 1184,837.252 L1184,47.232 A2.5,2.5 0 0 1 1186.5,44.732 " fill="none" style="stroke:#000000;stroke-width:1.5;"/><line style="stroke:#000000;stroke-width:1.5;" x1="1184" x2="1276" y1="69.7999" y2="69.7999"/><text fill="#000000" font-family="sans-serif" font-size="14" font-weight="bold" lengthAdjust="spacing" textLength="79" x="1188" y="61.6979">dicechancis</text></g><!--cluster Primitives--><g id="cluster_Primitives"><path d="M1777.5,737.752 L1848.5,737.752 A3.75,3.75 0 0 1 1851,740.252 L1858,762.8199 L1922.5,762.8199 A2.5,2.5 0 0 1 1925,765.3199 L1925,837.252 A2.5,2.5 0 0 1 1922.5,839.752 L1777.5,839.752 A2.5,2.5 0 0 1 1775,837.252 L1775,740.252 A2.5,2.5 0 0 1 1777.5,737.752 " fill="none" style="stroke:#000000;stroke-width:1.5;"/><line style="stroke:#000000;stroke-width:1.5;" x1="1775" x2="1858" y1="762.8199" y2="762.8199"/><text fill="#000000" font-family="sans-serif" font-size="14" font-weight="bold" lengthAdjust="spacing" textLength="70" x="1779" y="754.7179">Primitives</text></g><!--cluster Deckchanics--><g id="cluster_Deckchanics"><path d="M922.5,737.752 L1008.5,737.752 A3.75,3.75 0 0 1 1011,740.252 L1018,762.8199 L1018.5,762.8199 A2.5,2.5 0 0 1 1021,765.3199 L1021,837.252 A2.5,2.5 0 0 1 1018.5,839.752 L922.5,839.752 A2.5,2.5 0 0 1 920,837.252 L920,740.252 A2.5,2.5 0 0 1 922.5,737.752 " fill="none" style="stroke:#000000;stroke-width:1.5;"/><line style="stroke:#000000;stroke-width:1.5;" x1="920" x2="1018" y1="762.8199" y2="762.8199"/><text fill="#000000" font-family="sans-serif" font-size="14" font-weight="bold" lengthAdjust="spacing" textLength="85" x="924" y="754.7179">Deckchanics</text></g><!--class Pool--><g id="elem_Pool"><rect codeLine="3" fill="#F1F1F1" height="48" id="Pool" rx="2.5" ry="2.5" style="stroke:#181818;stroke-width:0.5;" width="60" x="968" y="82.732"/><ellipse cx="983" cy="98.732" fill="#ADD1B2" rx="11" ry="11" style="stroke:#181818;stroke-width:1.0;"/><path d="M982.4688,105.6539 Q980.7188,105.6539 979.5781,104.9195 Q978.4531,104.1695 977.8906,102.8257 Q977.3438,101.4664 977.3438,99.6695 Q977.3438,97.6382 978,96.1851 Q978.6563,94.732 979.9375,93.9507 Q981.2188,93.1695 983.0938,93.1695 Q983.9844,93.1695 984.6563,93.357 Q985.3281,93.5289 986.0156,93.8726 L985.2031,95.8882 Q984.5781,95.5757 984.0313,95.4507 Q983.5,95.3257 983.0156,95.3257 Q981.8438,95.3257 981.1406,95.857 Q980.4375,96.3882 980.1406,97.3414 Q979.8438,98.2945 979.8438,99.5601 Q979.8438,101.5757 980.5625,102.5445 Q981.2813,103.4976 982.875,103.4976 Q983.4688,103.4976 984.0938,103.3414 Q984.7188,103.1851 985.5469,102.8101 L985.5469,105.0289 Q984.8125,105.3414 984.0156,105.4976 Q983.2344,105.6539 982.4688,105.6539 Z " fill="#000000"/><text fill="#000000" font-family="sans-serif" font-size="14" lengthAdjust="spacing" textLength="28" x="997" y="104.164">Pool</text><line style="stroke:#181818;stroke-width:0.5;" x1="969" x2="1027" y1="114.732" y2="114.732"/><line style="stroke:#181818;stroke-width:0.5;" x1="969" x2="1027" y1="122.732" y2="122.732"/></g><!--class pool--><g id="elem_pool"><rect codeLine="5" fill="#F1F1F1" height="124.2717" id="pool" rx="2.5" ry="2.5" style="stroke:#181818;stroke-width:0.5;" width="368" x="565" y="44.602"/><ellipse cx="730.75" cy="60.602" fill="#B4A7E5" rx="11" ry="11" style="stroke:#181818;stroke-width:1.0;"/><path d="M726.7813,67.102 L726.7813,65.3989 L729.1406,65.1332 L729.1406,56.9301 L726.7813,56.6645 L726.7813,54.9614 L733.9219,54.9614 L733.9219,56.6645 L731.5,56.9301 L731.5,65.1332 L733.9219,65.3989 L733.9219,67.102 L726.7813,67.102 Z " fill="#000000"/><text fill="#000000" font-family="sans-serif" font-size="14" font-style="italic" lengthAdjust="spacing" textLength="28" x="751.25" y="66.034">Pool</text><line style="stroke:#181818;stroke-width:0.5;" x1="566" x2="932" y1="76.602" y2="76.602"/><text fill="#000000" font-family="sans-serif" font-size="14" lengthAdjust="spacing" textLength="356" x="571" y="95.5679">container of bags, used for combinatorial calulations</text><text fill="#000000" font-family="sans-serif" font-size="14" lengthAdjust="spacing" textLength="203" x="571" y="114.6358">related to Bag-Bag interaction</text><text fill="#000000" font-family="sans-serif" font-size="14" lengthAdjust="spacing" textLength="188" x="571" y="133.7038">bags are created seperately</text><line style="stroke:#181818;stroke-width:0.5;" x1="566" x2="932" y1="141.8057" y2="141.8057"/><ellipse cx="576" cy="156.8397" fill="#84BE84" rx="3" ry="3" style="stroke:#038048;stroke-width:1.0;"/><text fill="#000000" font-family="sans-serif" font-size="14" lengthAdjust="spacing" textLength="226" x="585" y="160.7717">prepare() -&gt; Iterable[(Bag, count)]</text></g><!--class Bag--><g id="elem_Bag"><rect codeLine="10" fill="#F1F1F1" height="48" id="Bag" rx="2.5" ry="2.5" style="stroke:#181818;stroke-width:0.5;" width="58" x="941" y="306.142"/><ellipse cx="956" cy="322.142" fill="#ADD1B2" rx="11" ry="11" style="stroke:#181818;stroke-width:1.0;"/><path d="M955.4688,329.0639 Q953.7188,329.0639 952.5781,328.3295 Q951.4531,327.5795 950.8906,326.2357 Q950.3438,324.8764 950.3438,323.0795 Q950.3438,321.0482 951,319.5951 Q951.6563,318.142 952.9375,317.3607 Q954.2188,316.5795 956.0938,316.5795 Q956.9844,316.5795 957.6563,316.767 Q958.3281,316.9389 959.0156,317.2826 L958.2031,319.2982 Q957.5781,318.9857 957.0313,318.8607 Q956.5,318.7357 956.0156,318.7357 Q954.8438,318.7357 954.1406,319.267 Q953.4375,319.7982 953.1406,320.7514 Q952.8438,321.7045 952.8438,322.9701 Q952.8438,324.9857 953.5625,325.9545 Q954.2813,326.9076 955.875,326.9076 Q956.4688,326.9076 957.0938,326.7514 Q957.7188,326.5951 958.5469,326.2201 L958.5469,328.4389 Q957.8125,328.7514 957.0156,328.9076 Q956.2344,329.0639 955.4688,329.0639 Z " fill="#000000"/><text fill="#000000" font-family="sans-serif" font-size="14" lengthAdjust="spacing" textLength="26" x="970" y="327.574">Bag</text><line style="stroke:#181818;stroke-width:0.5;" x1="942" x2="998" y1="338.142" y2="338.142"/><line style="stroke:#181818;stroke-width:0.5;" x1="942" x2="998" y1="346.142" y2="346.142"/></g><!--class bag--><g id="elem_bag"><rect codeLine="12" fill="#F1F1F1" height="181.4754" id="bag" rx="2.5" ry="2.5" style="stroke:#181818;stroke-width:0.5;" width="314" x="592" y="239.402"/><ellipse cx="732.75" cy="255.402" fill="#B4A7E5" rx="11" ry="11" style="stroke:#181818;stroke-width:1.0;"/><path d="M728.7813,261.902 L728.7813,260.1989 L731.1406,259.9332 L731.1406,251.7301 L728.7813,251.4645 L728.7813,249.7614 L735.9219,249.7614 L735.9219,251.4645 L733.5,251.7301 L733.5,259.9332 L735.9219,260.1989 L735.9219,261.902 L728.7813,261.902 Z " fill="#000000"/><text fill="#000000" font-family="sans-serif" font-size="14" font-style="italic" lengthAdjust="spacing" textLength="24" x="753.25" y="260.834">Bag</text><line style="stroke:#181818;stroke-width:0.5;" x1="593" x2="905" y1="271.402" y2="271.402"/><text fill="#000000" font-family="sans-serif" font-size="14" lengthAdjust="spacing" textLength="217" x="598" y="290.3679">container of mappings, used for</text><text fill="#000000" font-family="sans-serif" font-size="14" lengthAdjust="spacing" textLength="225" x="598" y="309.4358">specific combinatorial calulations</text><text fill="#000000" font-family="sans-serif" font-size="14" lengthAdjust="spacing" textLength="215" x="598" y="328.5038">mappings are created seperatly</text><line style="stroke:#181818;stroke-width:0.5;" x1="593" x2="905" y1="336.6057" y2="336.6057"/><ellipse cx="603" cy="351.6397" fill="#84BE84" rx="3" ry="3" style="stroke:#038048;stroke-width:1.0;"/><text fill="#000000" font-family="sans-serif" font-size="14" lengthAdjust="spacing" textLength="241" x="612" y="355.5717">prepare() -&gt; Iterable[(Mapping, int)]</text><ellipse cx="603" cy="370.7076" fill="#84BE84" rx="3" ry="3" style="stroke:#038048;stroke-width:1.0;"/><text fill="#000000" font-family="sans-serif" font-size="14" lengthAdjust="spacing" textLength="288" x="612" y="374.6396">Slice(Sequence[Bool] | python slice) -&gt; Bag</text><ellipse cx="603" cy="389.7755" fill="#84BE84" rx="3" ry="3" style="stroke:#038048;stroke-width:1.0;"/><text fill="#000000" font-family="sans-serif" font-size="14" lengthAdjust="spacing" textLength="145" x="612" y="393.7075">prepareSlice() -&gt; Slice</text><ellipse cx="603" cy="408.8434" fill="#84BE84" rx="3" ry="3" style="stroke:#038048;stroke-width:1.0;"/><text fill="#000000" font-family="sans-serif" font-size="14" lengthAdjust="spacing" textLength="165" x="612" y="412.7754">__getitem__(python slice)</text></g><!--class mapping--><g id="elem_mapping"><rect codeLine="21" fill="#F1F1F1" height="143.3396" id="mapping" rx="2.5" ry="2.5" style="stroke:#181818;stroke-width:0.5;" width="349" x="795.5" y="509.412"/><ellipse cx="894.25" cy="525.412" fill="#B4A7E5" rx="11" ry="11" style="stroke:#181818;stroke-width:1.0;"/><path d="M890.2813,531.912 L890.2813,530.2089 L892.6406,529.9432 L892.6406,521.7401 L890.2813,521.4745 L890.2813,519.7714 L897.4219,519.7714 L897.4219,521.4745 L895,521.7401 L895,529.9432 L897.4219,530.2089 L897.4219,531.912 L890.2813,531.912 Z " fill="#000000"/><text fill="#000000" font-family="sans-serif" font-size="14" font-style="italic" lengthAdjust="spacing" textLength="143" x="914.75" y="530.844">CombinationsMapping</text><line style="stroke:#181818;stroke-width:0.5;" x1="796.5" x2="1143.5" y1="541.412" y2="541.412"/><text fill="#000000" font-family="sans-serif" font-size="14" lengthAdjust="spacing" textLength="337" x="801.5" y="560.3779">Basic backend type for combinatorial calculations,</text><text fill="#000000" font-family="sans-serif" font-size="14" lengthAdjust="spacing" textLength="328" x="801.5" y="579.4458">if the methods are defined then its good for use.</text><line style="stroke:#181818;stroke-width:0.5;" x1="796.5" x2="1143.5" y1="587.5478" y2="587.5478"/><ellipse cx="806.5" cy="602.5818" fill="#84BE84" rx="3" ry="3" style="stroke:#038048;stroke-width:1.0;"/><text fill="#000000" font-family="sans-serif" font-size="14" lengthAdjust="spacing" textLength="45" x="815.5" y="606.5138">items()</text><ellipse cx="806.5" cy="621.6497" fill="#84BE84" rx="3" ry="3" style="stroke:#038048;stroke-width:1.0;"/><text fill="#000000" font-family="sans-serif" font-size="14" lengthAdjust="spacing" textLength="37" x="815.5" y="625.5817">keys()</text><ellipse cx="806.5" cy="640.7176" fill="#84BE84" rx="3" ry="3" style="stroke:#038048;stroke-width:1.0;"/><text fill="#000000" font-family="sans-serif" font-size="14" lengthAdjust="spacing" textLength="51" x="815.5" y="644.6496">values()</text></g><!--class sliceClass--><g id="elem_sliceClass"><rect codeLine="27" fill="#F1F1F1" height="48" id="sliceClass" rx="2.5" ry="2.5" style="stroke:#181818;stroke-width:0.5;" width="63" x="697.5" y="557.082"/><ellipse cx="712.5" cy="573.082" fill="#ADD1B2" rx="11" ry="11" style="stroke:#181818;stroke-width:1.0;"/><path d="M711.9688,580.0039 Q710.2188,580.0039 709.0781,579.2695 Q707.9531,578.5195 707.3906,577.1757 Q706.8438,575.8164 706.8438,574.0195 Q706.8438,571.9882 707.5,570.5351 Q708.1563,569.082 709.4375,568.3007 Q710.7188,567.5195 712.5938,567.5195 Q713.4844,567.5195 714.1563,567.707 Q714.8281,567.8789 715.5156,568.2226 L714.7031,570.2382 Q714.0781,569.9257 713.5313,569.8007 Q713,569.6757 712.5156,569.6757 Q711.3438,569.6757 710.6406,570.207 Q709.9375,570.7382 709.6406,571.6914 Q709.3438,572.6445 709.3438,573.9101 Q709.3438,575.9257 710.0625,576.8945 Q710.7813,577.8476 712.375,577.8476 Q712.9688,577.8476 713.5938,577.6914 Q714.2188,577.5351 715.0469,577.1601 L715.0469,579.3789 Q714.3125,579.6914 713.5156,579.8476 Q712.7344,580.0039 711.9688,580.0039 Z " fill="#000000"/><text fill="#000000" font-family="sans-serif" font-size="14" lengthAdjust="spacing" textLength="31" x="726.5" y="578.514">Slice</text><line style="stroke:#181818;stroke-width:0.5;" x1="698.5" x2="759.5" y1="589.082" y2="589.082"/><line style="stroke:#181818;stroke-width:0.5;" x1="698.5" x2="759.5" y1="597.082" y2="597.082"/></g><!--class slice--><g id="elem_slice"><rect codeLine="28" fill="#F1F1F1" height="124.2717" id="slice" rx="2.5" ry="2.5" style="stroke:#181818;stroke-width:0.5;" width="213" x="449.5" y="518.942"/><ellipse cx="537.75" cy="534.942" fill="#B4A7E5" rx="11" ry="11" style="stroke:#181818;stroke-width:1.0;"/><path d="M533.7813,541.442 L533.7813,539.7389 L536.1406,539.4732 L536.1406,531.2701 L533.7813,531.0045 L533.7813,529.3014 L540.9219,529.3014 L540.9219,531.0045 L538.5,531.2701 L538.5,539.4732 L540.9219,539.7389 L540.9219,541.442 L533.7813,541.442 Z " fill="#000000"/><text fill="#000000" font-family="sans-serif" font-size="14" font-style="italic" lengthAdjust="spacing" textLength="28" x="558.25" y="540.374">Slice</text><line style="stroke:#181818;stroke-width:0.5;" x1="450.5" x2="661.5" y1="550.942" y2="550.942"/><line style="stroke:#181818;stroke-width:0.5;" x1="450.5" x2="661.5" y1="558.942" y2="558.942"/><ellipse cx="460.5" cy="573.9759" fill="#84BE84" rx="3" ry="3" style="stroke:#038048;stroke-width:1.0;"/><text fill="#000000" font-family="sans-serif" font-size="14" lengthAdjust="spacing" textLength="187" x="469.5" y="577.9079">Slice(mask: Sequence[Bool])</text><ellipse cx="460.5" cy="593.0439" fill="#84BE84" rx="3" ry="3" style="stroke:#038048;stroke-width:1.0;"/><text fill="#000000" font-family="sans-serif" font-size="14" lengthAdjust="spacing" textLength="163" x="469.5" y="596.9758">Slice(mask: python slice)</text><ellipse cx="460.5" cy="612.1118" fill="#84BE84" rx="3" ry="3" style="stroke:#038048;stroke-width:1.0;"/><text fill="#000000" font-family="sans-serif" font-size="14" lengthAdjust="spacing" textLength="37" x="469.5" y="616.0438">next()</text><ellipse cx="460.5" cy="631.1797" fill="#84BE84" rx="3" ry="3" style="stroke:#038048;stroke-width:1.0;"/><text fill="#000000" font-family="sans-serif" font-size="14" lengthAdjust="spacing" textLength="38" x="469.5" y="635.1117">prev()</text></g><!--class Die--><g id="elem_Die"><rect codeLine="44" fill="#F1F1F1" height="48" id="Die" rx="2.5" ry="2.5" style="stroke:#181818;stroke-width:0.5;" width="54" x="1382" y="82.732"/><ellipse cx="1397" cy="98.732" fill="#ADD1B2" rx="11" ry="11" style="stroke:#181818;stroke-width:1.0;"/><path d="M1396.4688,105.6539 Q1394.7188,105.6539 1393.5781,104.9195 Q1392.4531,104.1695 1391.8906,102.8257 Q1391.3438,101.4664 1391.3438,99.6695 Q1391.3438,97.6382 1392,96.1851 Q1392.6563,94.732 1393.9375,93.9507 Q1395.2188,93.1695 1397.0938,93.1695 Q1397.9844,93.1695 1398.6563,93.357 Q1399.3281,93.5289 1400.0156,93.8726 L1399.2031,95.8882 Q1398.5781,95.5757 1398.0313,95.4507 Q1397.5,95.3257 1397.0156,95.3257 Q1395.8438,95.3257 1395.1406,95.857 Q1394.4375,96.3882 1394.1406,97.3414 Q1393.8438,98.2945 1393.8438,99.5601 Q1393.8438,101.5757 1394.5625,102.5445 Q1395.2813,103.4976 1396.875,103.4976 Q1397.4688,103.4976 1398.0938,103.3414 Q1398.7188,103.1851 1399.5469,102.8101 L1399.5469,105.0289 Q1398.8125,105.3414 1398.0156,105.4976 Q1397.2344,105.6539 1396.4688,105.6539 Z " fill="#000000"/><text fill="#000000" font-family="sans-serif" font-size="14" lengthAdjust="spacing" textLength="22" x="1411" y="104.164">Die</text><line style="stroke:#181818;stroke-width:0.5;" x1="1383" x2="1435" y1="114.732" y2="114.732"/><line style="stroke:#181818;stroke-width:0.5;" x1="1383" x2="1435" y1="122.732" y2="122.732"/></g><!--class numstat--><g id="elem_numstat"><rect codeLine="46" fill="#F1F1F1" height="48" id="numstat" rx="2.5" ry="2.5" style="stroke:#181818;stroke-width:0.5;" width="157" x="1200.5" y="557.082"/><ellipse cx="1215.5" cy="573.082" fill="#ADD1B2" rx="11" ry="11" style="stroke:#181818;stroke-width:1.0;"/><path d="M1214.9688,580.0039 Q1213.2188,580.0039 1212.0781,579.2695 Q1210.9531,578.5195 1210.3906,577.1757 Q1209.8438,575.8164 1209.8438,574.0195 Q1209.8438,571.9882 1210.5,570.5351 Q1211.1563,569.082 1212.4375,568.3007 Q1213.7188,567.5195 1215.5938,567.5195 Q1216.4844,567.5195 1217.1563,567.707 Q1217.8281,567.8789 1218.5156,568.2226 L1217.7031,570.2382 Q1217.0781,569.9257 1216.5313,569.8007 Q1216,569.6757 1215.5156,569.6757 Q1214.3438,569.6757 1213.6406,570.207 Q1212.9375,570.7382 1212.6406,571.6914 Q1212.3438,572.6445 1212.3438,573.9101 Q1212.3438,575.9257 1213.0625,576.8945 Q1213.7813,577.8476 1215.375,577.8476 Q1215.9688,577.8476 1216.5938,577.6914 Q1217.2188,577.5351 1218.0469,577.1601 L1218.0469,579.3789 Q1217.3125,579.6914 1216.5156,579.8476 Q1215.7344,580.0039 1214.9688,580.0039 Z " fill="#000000"/><text fill="#000000" font-family="sans-serif" font-size="14" lengthAdjust="spacing" textLength="125" x="1229.5" y="578.514">Number Statistical</text><line style="stroke:#181818;stroke-width:0.5;" x1="1201.5" x2="1356.5" y1="589.082" y2="589.082"/><line style="stroke:#181818;stroke-width:0.5;" x1="1201.5" x2="1356.5" y1="597.082" y2="597.082"/></g><!--class strstat--><g id="elem_strstat"><rect codeLine="47" fill="#F1F1F1" height="48" id="strstat" rx="2.5" ry="2.5" style="stroke:#181818;stroke-width:0.5;" width="142" x="1593" y="557.082"/><ellipse cx="1608" cy="573.082" fill="#ADD1B2" rx="11" ry="11" style="stroke:#181818;stroke-width:1.0;"/><path d="M1607.4688,580.0039 Q1605.7188,580.0039 1604.5781,579.2695 Q1603.4531,578.5195 1602.8906,577.1757 Q1602.3438,575.8164 1602.3438,574.0195 Q1602.3438,571.9882 1603,570.5351 Q1603.6563,569.082 1604.9375,568.3007 Q1606.2188,567.5195 1608.0938,567.5195 Q1608.9844,567.5195 1609.6563,567.707 Q1610.3281,567.8789 1611.0156,568.2226 L1610.2031,570.2382 Q1609.5781,569.9257 1609.0313,569.8007 Q1608.5,569.6757 1608.0156,569.6757 Q1606.8438,569.6757 1606.1406,570.207 Q1605.4375,570.7382 1605.1406,571.6914 Q1604.8438,572.6445 1604.8438,573.9101 Q1604.8438,575.9257 1605.5625,576.8945 Q1606.2813,577.8476 1607.875,577.8476 Q1608.4688,577.8476 1609.0938,577.6914 Q1609.7188,577.5351 1610.5469,577.1601 L1610.5469,579.3789 Q1609.8125,579.6914 1609.0156,579.8476 Q1608.2344,580.0039 1607.4688,580.0039 Z " fill="#000000"/><text fill="#000000" font-family="sans-serif" font-size="14" lengthAdjust="spacing" textLength="110" x="1622" y="578.514">String Statistical</text><line style="stroke:#181818;stroke-width:0.5;" x1="1594" x2="1734" y1="589.082" y2="589.082"/><line style="stroke:#181818;stroke-width:0.5;" x1="1594" x2="1734" y1="597.082" y2="597.082"/></g><!--class customstat--><g id="elem_customstat"><rect codeLine="48" fill="#F1F1F1" height="48" id="customstat" rx="2.5" ry="2.5" style="stroke:#181818;stroke-width:0.5;" width="165" x="1392.5" y="557.082"/><ellipse cx="1407.5" cy="573.082" fill="#ADD1B2" rx="11" ry="11" style="stroke:#181818;stroke-width:1.0;"/><path d="M1406.9688,580.0039 Q1405.2188,580.0039 1404.0781,579.2695 Q1402.9531,578.5195 1402.3906,577.1757 Q1401.8438,575.8164 1401.8438,574.0195 Q1401.8438,571.9882 1402.5,570.5351 Q1403.1563,569.082 1404.4375,568.3007 Q1405.7188,567.5195 1407.5938,567.5195 Q1408.4844,567.5195 1409.1563,567.707 Q1409.8281,567.8789 1410.5156,568.2226 L1409.7031,570.2382 Q1409.0781,569.9257 1408.5313,569.8007 Q1408,569.6757 1407.5156,569.6757 Q1406.3438,569.6757 1405.6406,570.207 Q1404.9375,570.7382 1404.6406,571.6914 Q1404.3438,572.6445 1404.3438,573.9101 Q1404.3438,575.9257 1405.0625,576.8945 Q1405.7813,577.8476 1407.375,577.8476 Q1407.9688,577.8476 1408.5938,577.6914 Q1409.2188,577.5351 1410.0469,577.1601 L1410.0469,579.3789 Q1409.3125,579.6914 1408.5156,579.8476 Q1407.7344,580.0039 1406.9688,580.0039 Z " fill="#000000"/><text fill="#000000" font-family="sans-serif" font-size="14" lengthAdjust="spacing" textLength="133" x="1421.5" y="578.514">Cumstom Statistical</text><line style="stroke:#181818;stroke-width:0.5;" x1="1393.5" x2="1556.5" y1="589.082" y2="589.082"/><line style="stroke:#181818;stroke-width:0.5;" x1="1393.5" x2="1556.5" y1="597.082" y2="597.082"/></g><!--class basestat--><g id="elem_basestat"><rect codeLine="49" fill="#F1F1F1" height="48" id="basestat" rx="2.5" ry="2.5" style="stroke:#181818;stroke-width:0.5;" width="133" x="1408.5" y="775.752"/><ellipse cx="1423.5" cy="791.752" fill="#ADD1B2" rx="11" ry="11" style="stroke:#181818;stroke-width:1.0;"/><path d="M1422.9688,798.6739 Q1421.2188,798.6739 1420.0781,797.9395 Q1418.9531,797.1895 1418.3906,795.8457 Q1417.8438,794.4864 1417.8438,792.6895 Q1417.8438,790.6582 1418.5,789.2051 Q1419.1563,787.752 1420.4375,786.9707 Q1421.7188,786.1895 1423.5938,786.1895 Q1424.4844,786.1895 1425.1563,786.377 Q1425.8281,786.5489 1426.5156,786.8926 L1425.7031,788.9082 Q1425.0781,788.5957 1424.5313,788.4707 Q1424,788.3457 1423.5156,788.3457 Q1422.3438,788.3457 1421.6406,788.877 Q1420.9375,789.4082 1420.6406,790.3614 Q1420.3438,791.3145 1420.3438,792.5801 Q1420.3438,794.5957 1421.0625,795.5645 Q1421.7813,796.5176 1423.375,796.5176 Q1423.9688,796.5176 1424.5938,796.3614 Q1425.2188,796.2051 1426.0469,795.8301 L1426.0469,798.0489 Q1425.3125,798.3614 1424.5156,798.5176 Q1423.7344,798.6739 1422.9688,798.6739 Z " fill="#000000"/><text fill="#000000" font-family="sans-serif" font-size="14" lengthAdjust="spacing" textLength="101" x="1437.5" y="797.184">Base Statistical</text><line style="stroke:#181818;stroke-width:0.5;" x1="1409.5" x2="1540.5" y1="807.752" y2="807.752"/><line style="stroke:#181818;stroke-width:0.5;" x1="1409.5" x2="1540.5" y1="815.752" y2="815.752"/></g><!--class Statistical--><g id="elem_Statistical"><rect codeLine="50" fill="#F1F1F1" height="200.5433" id="Statistical" rx="2.5" ry="2.5" style="stroke:#181818;stroke-width:0.5;" width="101" x="1457.5" y="229.872"/><ellipse cx="1475.65" cy="245.872" fill="#B4A7E5" rx="11" ry="11" style="stroke:#181818;stroke-width:1.0;"/><path d="M1471.6813,252.372 L1471.6813,250.6689 L1474.0406,250.4032 L1474.0406,242.2001 L1471.6813,241.9345 L1471.6813,240.2314 L1478.8219,240.2314 L1478.8219,241.9345 L1476.4,242.2001 L1476.4,250.4032 L1478.8219,250.6689 L1478.8219,252.372 L1471.6813,252.372 Z " fill="#000000"/><text fill="#000000" font-family="sans-serif" font-size="14" font-style="italic" lengthAdjust="spacing" textLength="62" x="1490.35" y="251.304">Statistical</text><line style="stroke:#181818;stroke-width:0.5;" x1="1458.5" x2="1557.5" y1="261.872" y2="261.872"/><ellipse cx="1468.5" cy="276.9059" fill="none" rx="3" ry="3" style="stroke:#038048;stroke-width:1.0;"/><text fill="#000000" font-family="sans-serif" font-size="14" lengthAdjust="spacing" textLength="38" x="1477.5" y="280.8379">mean</text><ellipse cx="1468.5" cy="295.9739" fill="none" rx="3" ry="3" style="stroke:#038048;stroke-width:1.0;"/><text fill="#000000" font-family="sans-serif" font-size="14" lengthAdjust="spacing" textLength="21" x="1477.5" y="299.9058">std</text><ellipse cx="1468.5" cy="315.0418" fill="none" rx="3" ry="3" style="stroke:#038048;stroke-width:1.0;"/><text fill="#000000" font-family="sans-serif" font-size="14" lengthAdjust="spacing" textLength="49" x="1477.5" y="318.9738">varians</text><line style="stroke:#181818;stroke-width:0.5;" x1="1458.5" x2="1557.5" y1="327.0757" y2="327.0757"/><ellipse cx="1468.5" cy="342.1097" fill="#84BE84" rx="3" ry="3" style="stroke:#038048;stroke-width:1.0;"/><text fill="#000000" font-family="sans-serif" font-size="14" lengthAdjust="spacing" textLength="45" x="1477.5" y="346.0417">items()</text><ellipse cx="1468.5" cy="361.1776" fill="#84BE84" rx="3" ry="3" style="stroke:#038048;stroke-width:1.0;"/><text fill="#000000" font-family="sans-serif" font-size="14" lengthAdjust="spacing" textLength="37" x="1477.5" y="365.1096">keys()</text><ellipse cx="1468.5" cy="380.2455" fill="#84BE84" rx="3" ry="3" style="stroke:#038048;stroke-width:1.0;"/><text fill="#000000" font-family="sans-serif" font-size="14" lengthAdjust="spacing" textLength="51" x="1477.5" y="384.1775">values()</text><ellipse cx="1468.5" cy="399.3134" fill="#84BE84" rx="3" ry="3" style="stroke:#038048;stroke-width:1.0;"/><text fill="#000000" font-family="sans-serif" font-size="14" lengthAdjust="spacing" textLength="38" x="1477.5" y="403.2454">map()</text><ellipse cx="1468.5" cy="418.3814" fill="#84BE84" rx="3" ry="3" style="stroke:#038048;stroke-width:1.0;"/><text fill="#000000" font-family="sans-serif" font-size="14" lengthAdjust="spacing" textLength="75" x="1477.5" y="422.3133">normalize()</text></g><!--class die--><g id="elem_die"><rect codeLine="60" fill="#F1F1F1" height="162.4075" id="die" rx="2.5" ry="2.5" style="stroke:#181818;stroke-width:0.5;" width="223" x="1199.5" y="248.932"/><ellipse cx="1296.75" cy="264.932" fill="#B4A7E5" rx="11" ry="11" style="stroke:#181818;stroke-width:1.0;"/><path d="M1292.7813,271.432 L1292.7813,269.7289 L1295.1406,269.4632 L1295.1406,261.2601 L1292.7813,260.9945 L1292.7813,259.2914 L1299.9219,259.2914 L1299.9219,260.9945 L1297.5,261.2601 L1297.5,269.4632 L1299.9219,269.7289 L1299.9219,271.432 L1292.7813,271.432 Z " fill="#000000"/><text fill="#000000" font-family="sans-serif" font-size="14" font-style="italic" lengthAdjust="spacing" textLength="20" x="1317.25" y="270.364">Die</text><line style="stroke:#181818;stroke-width:0.5;" x1="1200.5" x2="1421.5" y1="280.932" y2="280.932"/><ellipse cx="1210.5" cy="295.9659" fill="none" rx="3" ry="3" style="stroke:#038048;stroke-width:1.0;"/><text fill="#000000" font-family="sans-serif" font-size="14" lengthAdjust="spacing" textLength="38" x="1219.5" y="299.8979">mean</text><ellipse cx="1210.5" cy="315.0339" fill="none" rx="3" ry="3" style="stroke:#038048;stroke-width:1.0;"/><text fill="#000000" font-family="sans-serif" font-size="14" lengthAdjust="spacing" textLength="21" x="1219.5" y="318.9658">std</text><ellipse cx="1210.5" cy="334.1018" fill="none" rx="3" ry="3" style="stroke:#038048;stroke-width:1.0;"/><text fill="#000000" font-family="sans-serif" font-size="14" lengthAdjust="spacing" textLength="49" x="1219.5" y="338.0338">varians</text><line style="stroke:#181818;stroke-width:0.5;" x1="1200.5" x2="1421.5" y1="346.1357" y2="346.1357"/><text fill="#000000" font-family="sans-serif" font-size="14" lengthAdjust="spacing" textLength="197" x="1219.5" y="365.1017">&#171;Die manipulation functions&#187;</text><text fill="#000000" font-family="sans-serif" font-size="14" lengthAdjust="spacing" textLength="144" x="1219.5" y="384.1696">&#171;Operator overloads&#187;</text><ellipse cx="1210.5" cy="399.3055" fill="#84BE84" rx="3" ry="3" style="stroke:#038048;stroke-width:1.0;"/><text fill="#000000" font-family="sans-serif" font-size="14" lengthAdjust="spacing" textLength="90" x="1219.5" y="403.2375">map(callable)</text></g><!--class SortedString--><g id="elem_SortedString"><rect codeLine="70" fill="#F1F1F1" height="48" id="SortedString" rx="2.5" ry="2.5" style="stroke:#181818;stroke-width:0.5;" width="117" x="1791.5" y="775.752"/><ellipse cx="1806.5" cy="791.752" fill="#ADD1B2" rx="11" ry="11" style="stroke:#181818;stroke-width:1.0;"/><path d="M1805.9688,798.6739 Q1804.2188,798.6739 1803.0781,797.9395 Q1801.9531,797.1895 1801.3906,795.8457 Q1800.8438,794.4864 1800.8438,792.6895 Q1800.8438,790.6582 1801.5,789.2051 Q1802.1563,787.752 1803.4375,786.9707 Q1804.7188,786.1895 1806.5938,786.1895 Q1807.4844,786.1895 1808.1563,786.377 Q1808.8281,786.5489 1809.5156,786.8926 L1808.7031,788.9082 Q1808.0781,788.5957 1807.5313,788.4707 Q1807,788.3457 1806.5156,788.3457 Q1805.3438,788.3457 1804.6406,788.877 Q1803.9375,789.4082 1803.6406,790.3614 Q1803.3438,791.3145 1803.3438,792.5801 Q1803.3438,794.5957 1804.0625,795.5645 Q1804.7813,796.5176 1806.375,796.5176 Q1806.9688,796.5176 1807.5938,796.3614 Q1808.2188,796.2051 1809.0469,795.8301 L1809.0469,798.0489 Q1808.3125,798.3614 1807.5156,798.5176 Q1806.7344,798.6739 1805.9688,798.6739 Z " fill="#000000"/><text fill="#000000" font-family="sans-serif" font-size="14" lengthAdjust="spacing" textLength="85" x="1820.5" y="797.184">SortedString</text><line style="stroke:#181818;stroke-width:0.5;" x1="1792.5" x2="1907.5" y1="807.752" y2="807.752"/><line style="stroke:#181818;stroke-width:0.5;" x1="1792.5" x2="1907.5" y1="815.752" y2="815.752"/></g><!--class Deck--><g id="elem_Deck"><rect codeLine="74" fill="#F1F1F1" height="48" id="Deck" rx="2.5" ry="2.5" style="stroke:#181818;stroke-width:0.5;" width="64" x="938" y="775.752"/><ellipse cx="953" cy="791.752" fill="#ADD1B2" rx="11" ry="11" style="stroke:#181818;stroke-width:1.0;"/><path d="M952.4688,798.6739 Q950.7188,798.6739 949.5781,797.9395 Q948.4531,797.1895 947.8906,795.8457 Q947.3438,794.4864 947.3438,792.6895 Q947.3438,790.6582 948,789.2051 Q948.6563,787.752 949.9375,786.9707 Q951.2188,786.1895 953.0938,786.1895 Q953.9844,786.1895 954.6563,786.377 Q955.3281,786.5489 956.0156,786.8926 L955.2031,788.9082 Q954.5781,788.5957 954.0313,788.4707 Q953.5,788.3457 953.0156,788.3457 Q951.8438,788.3457 951.1406,788.877 Q950.4375,789.4082 950.1406,790.3614 Q949.8438,791.3145 949.8438,792.5801 Q949.8438,794.5957 950.5625,795.5645 Q951.2813,796.5176 952.875,796.5176 Q953.4688,796.5176 954.0938,796.3614 Q954.7188,796.2051 955.5469,795.8301 L955.5469,798.0489 Q954.8125,798.3614 954.0156,798.5176 Q953.2344,798.6739 952.4688,798.6739 Z " fill="#000000"/><text fill="#000000" font-family="sans-serif" font-size="14" lengthAdjust="spacing" textLength="32" x="967" y="797.184">Deck</text><line style="stroke:#181818;stroke-width:0.5;" x1="939" x2="1001" y1="807.752" y2="807.752"/><line style="stroke:#181818;stroke-width:0.5;" x1="939" x2="1001" y1="815.752" y2="815.752"/></g><g id="elem_GMN10"><path d="M6,558.372 L6,603.784 A0,0 0 0 0 6,603.784 L414,603.784 A0,0 0 0 0 414,603.784 L414,585.082 L449.26,581.082 L414,577.082 L414,568.372 L404,558.372 L6,558.372 A0,0 0 0 0 6,558.372 " fill="#FEFFDD" style="stroke:#181818;stroke-width:0.5;"/><path d="M404,558.372 L404,568.372 L414,568.372 L404,558.372 " fill="#FEFFDD" style="stroke:#181818;stroke-width:0.5;"/><text fill="#000000" font-family="sans-serif" font-size="13" lengthAdjust="spacing" textLength="387" x="12" y="577.269">Note takes in a sequence ofbools which indicate from left to right</text><text fill="#000000" font-family="sans-serif" font-size="13" lengthAdjust="spacing" textLength="126" x="12" y="594.975">the highest to lowest</text></g><!--reverse link pool to Pool--><g id="link_pool_Pool"><path codeLine="78" d="M951.32,106.732 C962.77,106.732 956.23,106.732 967.68,106.732 " fill="none" id="pool-backto-Pool" style="stroke:#181818;stroke-width:1.0;stroke-dasharray:7.0,7.0;"/><polygon fill="none" points="933.32,106.732,951.32,112.732,951.32,100.732,933.32,106.732" style="stroke:#181818;stroke-width:1.0;"/></g><!--link pool to bag--><g id="link_pool_bag"><path codeLine="79" d="M749,169.112 C749,190.742 749,209.532 749,233.032 " fill="none" id="pool-to-bag" style="stroke:#181818;stroke-width:1.0;"/><polygon fill="#181818" points="749,239.032,753,230.032,749,234.032,745,230.032,749,239.032" style="stroke:#181818;stroke-width:1.0;"/></g><!--reverse link bag to Bag--><g id="link_bag_Bag"><path codeLine="80" d="M924.12,330.142 C935.6,330.142 929.08,330.142 940.55,330.142 " fill="none" id="bag-backto-Bag" style="stroke:#181818;stroke-width:1.0;stroke-dasharray:7.0,7.0;"/><polygon fill="none" points="906.12,330.142,924.12,336.142,924.12,324.142,906.12,330.142" style="stroke:#181818;stroke-width:1.0;"/></g><!--link bag to mapping--><g id="link_bag_mapping"><path codeLine="81" d="M829.1,421.362 C854.79,450.312 878.8759,477.4457 903.1559,504.7857 " fill="none" id="bag-to-mapping" style="stroke:#181818;stroke-width:1.0;"/><polygon fill="#181818" points="907.14,509.272,904.1546,499.8865,903.8199,505.5334,898.1729,505.1987,907.14,509.272" style="stroke:#181818;stroke-width:1.0;"/></g><!--link bag to slice--><g id="link_bag_slice"><path codeLine="82" d="M679.05,421.362 C654.02,453.652 630.0857,484.5197 607.3757,513.8197 " fill="none" id="bag-to-slice" style="stroke:#181818;stroke-width:1.0;"/><polygon fill="#181818" points="603.7,518.562,612.3751,513.899,606.7631,514.6101,606.052,508.9981,603.7,518.562" style="stroke:#181818;stroke-width:1.0;"/><text fill="#000000" font-family="sans-serif" font-size="13" lengthAdjust="spacing" textLength="71" x="647.71" y="475.309">for selective</text></g><!--reverse link slice to sliceClass--><g id="link_slice_sliceClass"><path codeLine="83" d="M680.77,581.082 C692.24,581.082 685.71,581.082 697.18,581.082 " fill="none" id="slice-backto-sliceClass" style="stroke:#181818;stroke-width:1.0;stroke-dasharray:7.0,7.0;"/><polygon fill="none" points="662.77,581.082,680.77,587.082,680.77,575.082,662.77,581.082" style="stroke:#181818;stroke-width:1.0;"/></g><!--reverse link mapping to Deck--><g id="link_mapping_Deck"><path codeLine="85" d="M970,671.032 C970,713.362 970,746.372 970,775.442 " fill="none" id="mapping-backto-Deck" style="stroke:#181818;stroke-width:1.0;stroke-dasharray:7.0,7.0;"/><polygon fill="none" points="970,653.032,964,671.032,976,671.032,970,653.032" style="stroke:#181818;stroke-width:1.0;"/></g><!--link Die to die--><g id="link_Die_die"><path codeLine="87" d="M1398.7,131.012 C1386.39,158.822 1372.4135,190.3814 1353.9135,232.1914 " fill="none" id="Die-to-die" style="stroke:#181818;stroke-width:1.0;stroke-dasharray:7.0,7.0;"/><polygon fill="none" points="1346.63,248.652,1359.4003,234.6192,1348.4266,229.7636,1346.63,248.652" style="stroke:#181818;stroke-width:1.0;"/></g><!--link Die to Statistical--><g id="link_Die_Statistical"><path codeLine="88" d="M1419.41,131.012 C1429.98,154.662 1444.6401,187.4449 1461.0201,224.0649 " fill="none" id="Die-to-Statistical" style="stroke:#181818;stroke-width:1.0;"/><polygon fill="#181818" points="1463.47,229.542,1463.4466,219.6932,1461.4284,224.9778,1456.1438,222.9596,1463.47,229.542" style="stroke:#181818;stroke-width:1.0;"/></g><!--link die to mapping--><g id="link_die_mapping"><path codeLine="89" d="M1200.76,411.622 C1157.75,443.012 1123.417,468.0771 1081.757,498.4971 " fill="none" id="die-to-mapping" style="stroke:#181818;stroke-width:1.0;"/><polygon fill="none" points="1067.22,509.112,1085.2953,503.3428,1078.2187,493.6514,1067.22,509.112" style="stroke:#181818;stroke-width:1.0;"/></g><!--reverse link Statistical to numstat--><g id="link_Statistical_numstat"><path codeLine="90" d="M1446.2713,423.4679 C1440.7213,430.8479 1445.8,423.682 1440,430.412 C1398.02,479.132 1341.56,528.552 1307.86,556.652 " fill="none" id="Statistical-backto-numstat" style="stroke:#181818;stroke-width:1.0;stroke-dasharray:7.0,7.0;"/><polygon fill="none" points="1457.09,409.082,1441.476,419.8617,1451.0666,427.0742,1457.09,409.082" style="stroke:#181818;stroke-width:1.0;"/></g><!--reverse link Statistical to strstat--><g id="link_Statistical_strstat"><path codeLine="91" d="M1568.4193,427.5639 C1599.9893,477.9339 1628.77,523.852 1649.31,556.642 " fill="none" id="Statistical-backto-strstat" style="stroke:#181818;stroke-width:1.0;stroke-dasharray:7.0,7.0;"/><polygon fill="none" points="1558.86,412.312,1563.3353,430.7503,1573.5033,424.3774,1558.86,412.312" style="stroke:#181818;stroke-width:1.0;"/></g><!--reverse link Statistical to customstat--><g id="link_Statistical_customstat"><path codeLine="92" d="M1492.4514,448.4455 C1486.3214,494.6255 1481.94,527.752 1478.11,556.652 " fill="none" id="Statistical-backto-customstat" style="stroke:#181818;stroke-width:1.0;stroke-dasharray:7.0,7.0;"/><polygon fill="none" points="1494.82,430.602,1486.5036,447.6559,1498.3993,449.235,1494.82,430.602" style="stroke:#181818;stroke-width:1.0;"/></g><!--link numstat to basestat--><g id="link_numstat_basestat"><path codeLine="93" d="M1299.98,605.272 C1337.6,646.862 1404.0749,720.3431 1441.8049,762.0531 " fill="none" id="numstat-to-basestat" style="stroke:#181818;stroke-width:1.0;"/><polygon fill="none" points="1453.88,775.402,1446.2545,758.0281,1437.3553,766.0782,1453.88,775.402" style="stroke:#181818;stroke-width:1.0;"/><text fill="#000000" font-family="sans-serif" font-size="13" lengthAdjust="spacing" textLength="40" x="1401.82" y="699.649">special</text><text fill="#000000" font-family="sans-serif" font-size="13" lengthAdjust="spacing" textLength="41" x="1401.32" y="717.355">case of</text></g><!--link strstat to basestat--><g id="link_strstat_basestat"><path codeLine="94" d="M1643.77,605.272 C1607.49,646.862 1543.5817,720.1269 1507.2017,761.8369 " fill="none" id="strstat-to-basestat" style="stroke:#181818;stroke-width:1.0;"/><polygon fill="none" points="1495.37,775.402,1511.7234,765.7808,1502.68,757.893,1495.37,775.402" style="stroke:#181818;stroke-width:1.0;"/><text fill="#000000" font-family="sans-serif" font-size="13" lengthAdjust="spacing" textLength="40" x="1571" y="699.649">special</text><text fill="#000000" font-family="sans-serif" font-size="13" lengthAdjust="spacing" textLength="41" x="1570.5" y="717.355">case of</text></g><!--link customstat to basestat--><g id="link_customstat_basestat"><path codeLine="95" d="M1475,605.272 C1475,646.862 1475,715.692 1475,757.402 " fill="none" id="customstat-to-basestat" style="stroke:#181818;stroke-width:1.0;"/><polygon fill="none" points="1475,775.402,1481,757.402,1469,757.402,1475,775.402" style="stroke:#181818;stroke-width:1.0;"/><text fill="#000000" font-family="sans-serif" font-size="13" lengthAdjust="spacing" textLength="40" x="1476.5" y="699.649">special</text><text fill="#000000" font-family="sans-serif" font-size="13" lengthAdjust="spacing" textLength="41" x="1476" y="717.355">case of</text></g><!--link strstat to SortedString--><g id="link_strstat_SortedString"><path codeLine="96" d="M1683.91,605.272 C1719.61,646.862 1790.2416,729.1396 1826.0516,770.8496 " fill="none" id="strstat-to-SortedString" style="stroke:#181818;stroke-width:1.0;stroke-dasharray:7.0,7.0;"/><polygon fill="#181818" points="1829.96,775.402,1827.1323,765.9678,1826.703,771.6083,1821.0624,771.179,1829.96,775.402" style="stroke:#181818;stroke-width:1.0;"/></g><!--SRC=[fLNDRk8m4BxdAKPS2chX0QgAGzlB7hPRYMEfaEDCm2AnixP3bsLvzvsnav00bQfTf21xvlDullcpDnLu0wdntfIGAOlIAwEJIiYjM2ECfB4uEYH0Fra8v-3Lc2BkZ-5VQOys5vAmh1g1S53H0Y8e73JQ2wNHWiaX5Mjt1xN3379ZILUcIWjlh185I57KXM0Ft59Rf2N1oBz7iPxI5oyJqSNMEXi4OH6anO1tM178Ox7lCBTGMQm8D9x0T0xVs4fQuDkOZDwH3xNsa_SUgKYLb9ym9KqWchQ82vgbg2gb-rINsbKeLQxavwGxM-tnQyI-mkjxF7_7JZVC8dvHA8dZ1VwiKKjyUwHClSCVgFP-OpGurWPJnF3obdWuwCEoXrYjrkYLntAr6W-C9TSZ-DI4W5atpeQ8DiHFKNqKZYAMKZsYfbhOLtYzRcGRmxkbLZdu3KA9v4SMOvXXJgd9MAv1UGThOs85KdvcFIBCmOqdFSaMzqF1ZXA6hIWoUme5CmfH2Jm2-I0zPtw6EJ6zZU4jXTlUmp13a-kWOQ0xYCPVlkymPM_NUNjC4cqyGe6vvq9rRI9VMEh55Xrv2uAgBNf0e9HySF2nKN93kan9AaV8BKsCO8KQrAhrnhCLZlk6DkY2l30Vl4euTtnjGhzkjf0Xb1kXfN8ZwC-OPuM7YsuSlTHbIisry9Hdvyc9E6nqNJeIzP4BRwc6Bf3EstFa4nyc7kTGMRFu74srY1VGb8GTy9Jd7kpm7-KLHTGLWxqsjXI5-er350hTspgV3QnIfpGJvg8RAU21IwPwzNY8_NDyU20rkQ1LrVGOvBKEGzZDvrVWFyAOejOoExI54LaVTijSA2W53wf_zFvugg5NgqhbrGxTu9LQ64iJCzO1bto7VqQvvPfJSdY0vGoyuGSluPSCPbpSip_py9mbuKsRqkIZcP_mMzIfMK1VK3RZgzk7xheFSyPXmO_h3fFJR3WPYMruax4Rx0lCwehbhS4RIatZTyBfcB6IP673D_Ng3P8i27l7coPfhVR0ITCLrrIdBhYcRMrEC_EXfo4GiHFk8RnqebXgoHr3KwQxvGlW_hKNSBY_W7S4PlDXtly2]--></g></svg>